<svg width="200" height="200" viewBox="0 0 200 200" fill="none" xmlns="http://www.w3.org/2000/svg">
<rect width="200" height="200" fill="#C4C4C4"/>
<path d="M200 15.1111C179.63 58.6811 111.111 148.993 0 91.8076V-2.28882e-05H200V15.1111Z" fill="#6159E5"/>
<path d="M176 200C150.229 177.283 99.2303 105.479 101.4 0H199.556V200H176Z" fill="#FE654F"/>
<path d="M200 140.09C130.022 111.118 41.9508 162.146 7.11121 200L200 200V140.09Z" fill="#82D4BB"/>
<path d="M0 200H7.11111C7.11111 200 56 146.667 129.333 133.778C202.667 120.889 168.889 73.7778 116 100.444C63.1111 127.111 0 92 0 92V200Z" fill="#F7B538"/>
<path d="M36.88 36.688C37.728 37.024 38.416 37.536 38.944 38.224C39.488 38.912 39.76 39.8 39.76 40.888C39.76 42.792 39.216 44.12 38.128 44.872C37.04 45.624 35.744 46 34.24 46H28.264C27.848 46 27.496 45.864 27.208 45.592C26.936 45.304 26.8 44.952 26.8 44.536V30.664C26.8 30.248 26.936 29.904 27.208 29.632C27.496 29.344 27.848 29.2 28.264 29.2H34.312C37.352 29.2 38.872 30.624 38.872 33.472C38.872 34.192 38.696 34.832 38.344 35.392C38.008 35.936 37.52 36.368 36.88 36.688ZM35.752 34C35.752 33.344 35.584 32.856 35.248 32.536C34.928 32.2 34.472 32.032 33.88 32.032H29.92V35.776H33.952C34.432 35.776 34.848 35.616 35.2 35.296C35.568 34.976 35.752 34.544 35.752 34ZM34.24 43.24C34.992 43.24 35.576 43.04 35.992 42.64C36.424 42.24 36.64 41.656 36.64 40.888C36.64 39.944 36.392 39.328 35.896 39.04C35.4 38.752 34.792 38.608 34.072 38.608H29.92V43.24H34.24ZM44.9986 44.536C44.9986 44.952 44.8626 45.304 44.5906 45.592C44.3186 45.864 43.9746 46 43.5586 46C43.1426 46 42.7986 45.864 42.5266 45.592C42.2546 45.304 42.1186 44.952 42.1186 44.536V34.624C42.1186 34.208 42.2546 33.864 42.5266 33.592C42.7986 33.304 43.1426 33.16 43.5586 33.16C43.9746 33.16 44.3186 33.304 44.5906 33.592C44.8626 33.864 44.9986 34.208 44.9986 34.624V44.536ZM43.5346 31.6C42.9906 31.6 42.6066 31.512 42.3826 31.336C42.1586 31.16 42.0466 30.848 42.0466 30.4V29.944C42.0466 29.496 42.1666 29.184 42.4066 29.008C42.6466 28.832 43.0306 28.744 43.5586 28.744C44.1186 28.744 44.5106 28.832 44.7346 29.008C44.9586 29.184 45.0706 29.496 45.0706 29.944V30.4C45.0706 30.864 44.9506 31.184 44.7106 31.36C44.4866 31.52 44.0946 31.6 43.5346 31.6ZM60.2944 39.592C60.2944 40.872 60.0064 42.024 59.4304 43.048C58.8544 44.056 58.0624 44.84 57.0544 45.4C56.0624 45.96 54.9664 46.24 53.7664 46.24C52.5504 46.24 51.4464 45.96 50.4544 45.4C49.4624 44.84 48.6784 44.056 48.1024 43.048C47.5264 42.024 47.2384 40.872 47.2384 39.592C47.2384 38.312 47.5264 37.168 48.1024 36.16C48.6784 35.136 49.4624 34.344 50.4544 33.784C51.4464 33.208 52.5504 32.92 53.7664 32.92C54.9664 32.92 56.0624 33.208 57.0544 33.784C58.0624 34.344 58.8544 35.136 59.4304 36.16C60.0064 37.168 60.2944 38.312 60.2944 39.592ZM57.4144 39.592C57.4144 38.808 57.2464 38.112 56.9104 37.504C56.5904 36.88 56.1504 36.4 55.5904 36.064C55.0464 35.728 54.4384 35.56 53.7664 35.56C53.0944 35.56 52.4784 35.728 51.9184 36.064C51.3744 36.4 50.9344 36.88 50.5984 37.504C50.2784 38.112 50.1184 38.808 50.1184 39.592C50.1184 40.376 50.2784 41.072 50.5984 41.68C50.9344 42.288 51.3744 42.76 51.9184 43.096C52.4784 43.432 53.0944 43.6 53.7664 43.6C54.4384 43.6 55.0464 43.432 55.5904 43.096C56.1504 42.76 56.5904 42.288 56.9104 41.68C57.2464 41.072 57.4144 40.376 57.4144 39.592ZM73.3326 32.92C73.7486 32.92 74.0926 33.056 74.3646 33.328C74.6366 33.6 74.7726 33.952 74.7726 34.384V45.064C74.7726 47.016 74.1646 48.456 72.9486 49.384C71.7486 50.328 70.2206 50.8 68.3646 50.8C67.8846 50.8 67.2206 50.72 66.3726 50.56C65.5406 50.4 64.9486 50.24 64.5966 50.08C63.8126 49.744 63.4206 49.28 63.4206 48.688C63.4206 48.576 63.4446 48.448 63.4926 48.304C63.5886 47.952 63.7486 47.68 63.9726 47.488C64.2126 47.312 64.4686 47.224 64.7406 47.224C64.9006 47.224 65.0526 47.248 65.1966 47.296C65.2606 47.312 65.6526 47.456 66.3726 47.728C67.1086 48.016 67.7726 48.16 68.3646 48.16C69.5486 48.16 70.4286 47.92 71.0046 47.44C71.5966 46.976 71.8926 46.312 71.8926 45.448V44.296C71.5406 44.792 71.0046 45.24 70.2846 45.64C69.5806 46.04 68.8206 46.24 68.0046 46.24C66.8846 46.24 65.8606 45.96 64.9326 45.4C64.0206 44.824 63.3006 44.032 62.7726 43.024C62.2446 42.016 61.9806 40.872 61.9806 39.592C61.9806 38.312 62.2366 37.168 62.7486 36.16C63.2766 35.136 63.9886 34.344 64.8846 33.784C65.7966 33.208 66.8046 32.92 67.9086 32.92C68.7246 32.92 69.4846 33.088 70.1886 33.424C70.8926 33.76 71.4606 34.168 71.8926 34.648V34.384C71.8926 33.968 72.0286 33.624 72.3006 33.352C72.5726 33.064 72.9166 32.92 73.3326 32.92ZM68.3646 43.6C69.4366 43.6 70.3086 43.224 70.9806 42.472C71.6686 41.704 72.0126 40.744 72.0126 39.592C72.0126 38.44 71.6686 37.48 70.9806 36.712C70.3086 35.944 69.4366 35.56 68.3646 35.56C67.2926 35.56 66.4206 35.944 65.7486 36.712C65.0766 37.48 64.7406 38.44 64.7406 39.592C64.7406 40.744 65.0766 41.704 65.7486 42.472C66.4206 43.224 67.2926 43.6 68.3646 43.6ZM84.5601 32.92C85.0401 32.92 85.4401 33.056 85.7601 33.328C86.0961 33.6 86.2641 33.92 86.2641 34.288C86.2641 34.784 86.1361 35.16 85.8801 35.416C85.6241 35.656 85.3201 35.776 84.9681 35.776C84.7281 35.776 84.4561 35.72 84.1521 35.608C84.1041 35.592 83.9921 35.56 83.8161 35.512C83.6561 35.464 83.4801 35.44 83.2881 35.44C82.8721 35.44 82.4721 35.568 82.0881 35.824C81.7041 36.08 81.3841 36.472 81.1281 37C80.8881 37.512 80.7681 38.128 80.7681 38.848V44.536C80.7681 44.952 80.6321 45.304 80.3601 45.592C80.0881 45.864 79.7441 46 79.3281 46C78.9121 46 78.5681 45.864 78.2961 45.592C78.0241 45.304 77.8881 44.952 77.8881 44.536V34.624C77.8881 34.208 78.0241 33.864 78.2961 33.592C78.5681 33.304 78.9121 33.16 79.3281 33.16C79.7441 33.16 80.0881 33.304 80.3601 33.592C80.6321 33.864 80.7681 34.208 80.7681 34.624V34.936C81.1361 34.28 81.6641 33.784 82.3521 33.448C83.0401 33.096 83.7761 32.92 84.5601 32.92ZM98.4051 32.92C98.8211 32.92 99.1651 33.056 99.4371 33.328C99.7091 33.6 99.8451 33.952 99.8451 34.384V44.536C99.8451 44.952 99.7091 45.304 99.4371 45.592C99.1651 45.864 98.8211 46 98.4051 46C97.9891 46 97.6451 45.864 97.3731 45.592C97.1171 45.32 96.9811 44.976 96.9651 44.56C96.5651 45.024 96.0211 45.424 95.3331 45.76C94.6611 46.08 93.9491 46.24 93.1971 46.24C92.0931 46.24 91.0931 45.96 90.1971 45.4C89.3011 44.824 88.5891 44.032 88.0611 43.024C87.5491 42.016 87.2931 40.872 87.2931 39.592C87.2931 38.312 87.5491 37.168 88.0611 36.16C88.5731 35.136 89.2691 34.344 90.1491 33.784C91.0451 33.208 92.0291 32.92 93.1011 32.92C93.8691 32.92 94.5891 33.064 95.2611 33.352C95.9331 33.624 96.5011 33.976 96.9651 34.408V34.384C96.9651 33.968 97.1011 33.624 97.3731 33.352C97.6451 33.064 97.9891 32.92 98.4051 32.92ZM93.5571 43.6C94.5971 43.6 95.4451 43.224 96.1011 42.472C96.7571 41.704 97.0851 40.744 97.0851 39.592C97.0851 38.44 96.7571 37.48 96.1011 36.712C95.4451 35.944 94.5971 35.56 93.5571 35.56C92.5331 35.56 91.6931 35.944 91.0371 36.712C90.3811 37.48 90.0531 38.44 90.0531 39.592C90.0531 40.744 90.3731 41.704 91.0131 42.472C91.6691 43.224 92.5171 43.6 93.5571 43.6ZM109.614 32.92C110.718 32.92 111.718 33.208 112.614 33.784C113.51 34.344 114.214 35.128 114.726 36.136C115.254 37.144 115.518 38.288 115.518 39.568C115.518 40.848 115.262 42 114.75 43.024C114.238 44.032 113.534 44.824 112.638 45.4C111.758 45.96 110.782 46.24 109.71 46.24C108.942 46.24 108.214 46.088 107.526 45.784C106.854 45.464 106.294 45.08 105.846 44.632V49.336C105.846 49.752 105.71 50.096 105.438 50.368C105.166 50.656 104.822 50.8 104.406 50.8C103.99 50.8 103.646 50.664 103.374 50.392C103.102 50.12 102.966 49.768 102.966 49.336V34.624C102.966 34.208 103.102 33.864 103.374 33.592C103.646 33.304 103.99 33.16 104.406 33.16C104.822 33.16 105.166 33.304 105.438 33.592C105.71 33.864 105.846 34.208 105.846 34.624V34.72C106.23 34.24 106.766 33.824 107.454 33.472C108.142 33.104 108.862 32.92 109.614 32.92ZM109.254 43.6C110.278 43.6 111.118 43.216 111.774 42.448C112.43 41.68 112.758 40.72 112.758 39.568C112.758 38.416 112.43 37.464 111.774 36.712C111.134 35.944 110.294 35.56 109.254 35.56C108.214 35.56 107.366 35.944 106.71 36.712C106.054 37.464 105.726 38.416 105.726 39.568C105.726 40.72 106.054 41.68 106.71 42.448C107.366 43.216 108.214 43.6 109.254 43.6ZM124.663 32.92C126.247 32.92 127.343 33.408 127.951 34.384C128.559 35.344 128.863 36.68 128.863 38.392V44.536C128.863 44.952 128.727 45.304 128.455 45.592C128.183 45.864 127.839 46 127.423 46C127.007 46 126.663 45.864 126.391 45.592C126.119 45.304 125.983 44.952 125.983 44.536V38.392C125.983 37.512 125.807 36.824 125.455 36.328C125.119 35.816 124.519 35.56 123.655 35.56C122.759 35.56 122.055 35.832 121.543 36.376C121.047 36.904 120.799 37.576 120.799 38.392V44.536C120.799 44.952 120.663 45.304 120.391 45.592C120.119 45.864 119.775 46 119.359 46C118.943 46 118.599 45.864 118.327 45.592C118.055 45.304 117.919 44.952 117.919 44.536V29.704C117.919 29.288 118.055 28.944 118.327 28.672C118.599 28.384 118.943 28.24 119.359 28.24C119.775 28.24 120.119 28.384 120.391 28.672C120.663 28.944 120.799 29.288 120.799 29.704V35.008C121.231 34.432 121.775 33.944 122.431 33.544C123.103 33.128 123.847 32.92 124.663 32.92ZM141.393 33.16C141.809 33.16 142.153 33.304 142.425 33.592C142.697 33.864 142.833 34.208 142.833 34.624V44.824C142.833 46.904 142.273 48.416 141.153 49.36C140.033 50.32 138.537 50.8 136.665 50.8C136.121 50.8 135.561 50.752 134.985 50.656C134.425 50.576 133.969 50.464 133.617 50.32C132.833 49.984 132.441 49.52 132.441 48.928C132.441 48.816 132.465 48.688 132.513 48.544C132.609 48.192 132.769 47.92 132.993 47.728C133.233 47.552 133.489 47.464 133.761 47.464C133.921 47.464 134.073 47.488 134.217 47.536C134.329 47.584 134.521 47.664 134.793 47.776C135.081 47.888 135.377 47.976 135.681 48.04C136.001 48.12 136.329 48.16 136.665 48.16C137.801 48.16 138.633 47.912 139.161 47.416C139.705 46.936 139.977 46.104 139.977 44.92V44.68C139.145 45.72 137.849 46.24 136.089 46.24C135.257 46.24 134.521 46.048 133.881 45.664C133.241 45.264 132.745 44.72 132.393 44.032C132.041 43.328 131.865 42.528 131.865 41.632V34.624C131.865 34.208 132.001 33.864 132.273 33.592C132.545 33.304 132.889 33.16 133.305 33.16C133.721 33.16 134.065 33.304 134.337 33.592C134.609 33.864 134.745 34.208 134.745 34.624V40.768C134.745 41.776 134.961 42.504 135.393 42.952C135.841 43.384 136.489 43.6 137.337 43.6C138.169 43.6 138.809 43.36 139.257 42.88C139.721 42.384 139.953 41.68 139.953 40.768V34.624C139.953 34.208 140.089 33.864 140.361 33.592C140.633 33.304 140.977 33.16 141.393 33.16Z" fill="white"/>
</svg>
