<svg width="199" height="94" viewBox="0 0 199 94" fill="none" xmlns="http://www.w3.org/2000/svg">
<path d="M124.976 33.096C126.256 33.416 127.301 34.056 128.112 35.016C128.923 35.976 129.328 37.224 129.328 38.76C129.328 40.8507 128.677 42.4187 127.376 43.464C126.096 44.488 124.496 45 122.576 45H113.968C113.691 45 113.456 44.9147 113.264 44.744C113.093 44.552 113.008 44.3173 113.008 44.04V23.56C113.008 23.2827 113.093 23.0587 113.264 22.888C113.456 22.696 113.691 22.6 113.968 22.6H122.448C124.24 22.6 125.637 23.0907 126.64 24.072C127.664 25.0533 128.176 26.3973 128.176 28.104C128.176 29.2347 127.899 30.248 127.344 31.144C126.789 32.04 126 32.6907 124.976 33.096ZM126.128 28.264C126.128 27.0907 125.776 26.1733 125.072 25.512C124.389 24.8293 123.429 24.488 122.192 24.488H115.056V32.488H122.192C123.344 32.4667 124.283 32.0933 125.008 31.368C125.755 30.6427 126.128 29.608 126.128 28.264ZM122.48 43.112C123.909 43.112 125.061 42.7493 125.936 42.024C126.832 41.2987 127.28 40.2107 127.28 38.76C127.28 37.2667 126.821 36.168 125.904 35.464C125.008 34.76 123.845 34.408 122.416 34.408H115.056V43.112H122.48ZM148.444 36.808C148.444 38.408 148.093 39.8587 147.389 41.16C146.685 42.4613 145.714 43.4853 144.477 44.232C143.239 44.9573 141.863 45.32 140.349 45.32C138.834 45.32 137.458 44.9573 136.221 44.232C134.983 43.4853 134.013 42.4613 133.309 41.16C132.605 39.8587 132.253 38.408 132.253 36.808C132.253 35.208 132.605 33.7573 133.309 32.456C134.013 31.1547 134.983 30.1307 136.221 29.384C137.458 28.6373 138.834 28.264 140.349 28.264C141.863 28.264 143.239 28.6373 144.477 29.384C145.714 30.1307 146.685 31.1547 147.389 32.456C148.093 33.7573 148.444 35.208 148.444 36.808ZM146.525 36.808C146.525 35.528 146.258 34.376 145.725 33.352C145.191 32.328 144.445 31.528 143.485 30.952C142.546 30.3547 141.501 30.056 140.349 30.056C139.197 30.056 138.151 30.3547 137.213 30.952C136.274 31.528 135.527 32.328 134.973 33.352C134.439 34.376 134.173 35.528 134.173 36.808C134.173 38.0667 134.439 39.208 134.973 40.232C135.527 41.256 136.274 42.0667 137.213 42.664C138.151 43.24 139.197 43.528 140.349 43.528C141.501 43.528 142.546 43.24 143.485 42.664C144.445 42.088 145.191 41.288 145.725 40.264C146.258 39.24 146.525 38.088 146.525 36.808ZM167.476 36.808C167.476 38.408 167.124 39.8587 166.42 41.16C165.716 42.4613 164.745 43.4853 163.508 44.232C162.27 44.9573 160.894 45.32 159.38 45.32C157.865 45.32 156.489 44.9573 155.252 44.232C154.014 43.4853 153.044 42.4613 152.34 41.16C151.636 39.8587 151.284 38.408 151.284 36.808C151.284 35.208 151.636 33.7573 152.34 32.456C153.044 31.1547 154.014 30.1307 155.252 29.384C156.489 28.6373 157.865 28.264 159.38 28.264C160.894 28.264 162.27 28.6373 163.508 29.384C164.745 30.1307 165.716 31.1547 166.42 32.456C167.124 33.7573 167.476 35.208 167.476 36.808ZM165.556 36.808C165.556 35.528 165.289 34.376 164.756 33.352C164.222 32.328 163.476 31.528 162.516 30.952C161.577 30.3547 160.532 30.056 159.38 30.056C158.228 30.056 157.182 30.3547 156.244 30.952C155.305 31.528 154.558 32.328 154.004 33.352C153.47 34.376 153.204 35.528 153.204 36.808C153.204 38.0667 153.47 39.208 154.004 40.232C154.558 41.256 155.305 42.0667 156.244 42.664C157.182 43.24 158.228 43.528 159.38 43.528C160.532 43.528 161.577 43.24 162.516 42.664C163.476 42.088 164.222 41.288 164.756 40.264C165.289 39.24 165.556 38.088 165.556 36.808ZM184.363 43.304C184.555 43.5173 184.651 43.7627 184.651 44.04C184.651 44.3173 184.534 44.552 184.299 44.744C184.086 44.9147 183.883 45 183.691 45C183.414 45 183.179 44.8827 182.987 44.648L175.915 37.16L173.515 39.208V44.04C173.515 44.3173 173.419 44.552 173.227 44.744C173.056 44.9147 172.832 45 172.555 45C172.278 45 172.043 44.9147 171.851 44.744C171.68 44.552 171.595 44.3173 171.595 44.04V22.28C171.595 22.0027 171.68 21.7787 171.851 21.608C172.043 21.416 172.278 21.32 172.555 21.32C172.832 21.32 173.056 21.416 173.227 21.608C173.419 21.7787 173.515 22.0027 173.515 22.28V36.872L182.763 28.904C182.955 28.6907 183.179 28.584 183.435 28.584C183.67 28.584 183.883 28.6907 184.075 28.904C184.267 29.096 184.363 29.3093 184.363 29.544C184.363 29.8 184.246 30.0453 184.011 30.28L177.419 35.88L184.363 43.304ZM121.552 54.6C122.725 54.6 123.781 54.8773 124.72 55.432C125.659 55.9653 126.384 56.7227 126.896 57.704C127.429 58.664 127.696 59.752 127.696 60.968C127.696 62.184 127.429 63.2933 126.896 64.296C126.384 65.2987 125.659 66.088 124.72 66.664C123.781 67.24 122.725 67.528 121.552 67.528H114.928V76.04C114.928 76.3173 114.832 76.552 114.64 76.744C114.469 76.9147 114.245 77 113.968 77C113.691 77 113.456 76.9147 113.264 76.744C113.093 76.552 113.008 76.3173 113.008 76.04V55.56C113.008 55.2827 113.093 55.0587 113.264 54.888C113.456 54.696 113.691 54.6 113.968 54.6H121.552ZM121.552 65.672C122.789 65.672 123.792 65.224 124.56 64.328C125.328 63.432 125.712 62.312 125.712 60.968C125.712 59.6453 125.328 58.568 124.56 57.736C123.792 56.904 122.789 56.488 121.552 56.488H114.928V65.672H121.552ZM133.447 76.04C133.447 76.3173 133.351 76.552 133.159 76.744C132.988 76.9147 132.764 77 132.487 77C132.209 77 131.975 76.9147 131.783 76.744C131.612 76.552 131.527 76.3173 131.527 76.04V61.32C131.527 61.0427 131.612 60.8187 131.783 60.648C131.975 60.456 132.209 60.36 132.487 60.36C132.764 60.36 132.988 60.456 133.159 60.648C133.351 60.8187 133.447 61.0427 133.447 61.32V76.04ZM132.487 58.216C132.06 58.216 131.729 58.12 131.495 57.928C131.26 57.7147 131.143 57.416 131.143 57.032V56.712C131.143 56.328 131.26 56.04 131.495 55.848C131.751 55.6347 132.092 55.528 132.519 55.528C133.372 55.528 133.799 55.9227 133.799 56.712V57.032C133.799 57.416 133.681 57.7147 133.447 57.928C133.233 58.12 132.913 58.216 132.487 58.216ZM145.506 60.264C146.509 60.264 147.437 60.3813 148.29 60.616C149.165 60.8293 149.858 61.128 150.37 61.512C150.904 61.896 151.17 62.312 151.17 62.76C151.17 62.9947 151.085 63.208 150.914 63.4C150.765 63.592 150.573 63.688 150.338 63.688C150.125 63.688 149.944 63.6453 149.794 63.56C149.666 63.4747 149.517 63.3467 149.346 63.176C149.069 62.8987 148.802 62.696 148.546 62.568C148.226 62.4187 147.8 62.3013 147.266 62.216C146.754 62.1093 146.2 62.056 145.602 62.056C144.429 62.056 143.352 62.3547 142.37 62.952C141.41 63.5493 140.653 64.36 140.098 65.384C139.544 66.408 139.266 67.5387 139.266 68.776C139.266 70.056 139.533 71.208 140.066 72.232C140.6 73.256 141.336 74.0667 142.274 74.664C143.234 75.24 144.322 75.528 145.538 75.528C146.306 75.528 146.914 75.464 147.362 75.336C147.832 75.208 148.29 75.0267 148.738 74.792C148.888 74.7067 149.144 74.5147 149.506 74.216C149.677 74.0667 149.826 73.96 149.954 73.896C150.082 73.8107 150.221 73.768 150.37 73.768C150.626 73.768 150.829 73.8533 150.978 74.024C151.128 74.1733 151.202 74.376 151.202 74.632C151.202 74.9947 150.946 75.3893 150.434 75.816C149.922 76.2213 149.218 76.5733 148.322 76.872C147.426 77.1707 146.434 77.32 145.346 77.32C143.789 77.32 142.402 76.9573 141.186 76.232C139.97 75.4853 139.021 74.4613 138.338 73.16C137.677 71.8587 137.346 70.3973 137.346 68.776C137.346 67.2187 137.688 65.8 138.37 64.52C139.053 63.2187 140.013 62.184 141.25 61.416C142.488 60.648 143.906 60.264 145.506 60.264ZM167.832 75.304C168.024 75.5173 168.12 75.7627 168.12 76.04C168.12 76.3173 168.002 76.552 167.768 76.744C167.554 76.9147 167.352 77 167.16 77C166.882 77 166.648 76.8827 166.456 76.648L159.384 69.16L156.984 71.208V76.04C156.984 76.3173 156.888 76.552 156.696 76.744C156.525 76.9147 156.301 77 156.024 77C155.746 77 155.512 76.9147 155.32 76.744C155.149 76.552 155.064 76.3173 155.064 76.04V54.28C155.064 54.0027 155.149 53.7787 155.32 53.608C155.512 53.416 155.746 53.32 156.024 53.32C156.301 53.32 156.525 53.416 156.696 53.608C156.888 53.7787 156.984 54.0027 156.984 54.28V68.872L166.232 60.904C166.424 60.6907 166.648 60.584 166.904 60.584C167.138 60.584 167.352 60.6907 167.544 60.904C167.736 61.096 167.832 61.3093 167.832 61.544C167.832 61.8 167.714 62.0453 167.48 62.28L160.888 67.88L167.832 75.304ZM185.102 67.88C185.102 68.136 185.006 68.36 184.814 68.552C184.622 68.7227 184.398 68.808 184.142 68.808H172.046C172.046 70.088 172.302 71.24 172.814 72.264C173.347 73.2667 174.094 74.0667 175.054 74.664C176.035 75.24 177.187 75.528 178.51 75.528C179.534 75.528 180.451 75.3147 181.262 74.888C182.073 74.4613 182.723 73.9173 183.214 73.256C183.449 73.064 183.673 72.968 183.886 72.968C184.099 72.968 184.291 73.0533 184.462 73.224C184.633 73.3947 184.718 73.5867 184.718 73.8C184.718 74.0347 184.611 74.2587 184.398 74.472C183.715 75.304 182.851 75.9867 181.806 76.52C180.782 77.0533 179.694 77.32 178.542 77.32C176.899 77.32 175.449 76.968 174.19 76.264C172.931 75.56 171.95 74.5787 171.246 73.32C170.542 72.04 170.19 70.568 170.19 68.904C170.19 67.1547 170.531 65.6293 171.214 64.328C171.918 63.0053 172.846 62.0027 173.998 61.32C175.15 60.616 176.377 60.264 177.678 60.264C178.958 60.264 180.153 60.5627 181.262 61.16C182.393 61.7573 183.31 62.632 184.014 63.784C184.718 64.936 185.081 66.3013 185.102 67.88ZM177.678 62.12C176.441 62.12 175.289 62.5467 174.222 63.4C173.177 64.2533 172.505 65.48 172.206 67.08H183.118V66.824C183.011 65.864 182.691 65.032 182.158 64.328C181.625 63.6027 180.953 63.0587 180.142 62.696C179.353 62.312 178.531 62.12 177.678 62.12ZM196.707 60.264C197.134 60.264 197.518 60.3493 197.859 60.52C198.201 60.6907 198.371 60.9467 198.371 61.288C198.371 61.5867 198.286 61.832 198.115 62.024C197.945 62.1947 197.742 62.28 197.507 62.28C197.401 62.28 197.187 62.2267 196.867 62.12C196.569 62.0133 196.281 61.96 196.003 61.96C195.214 61.96 194.425 62.2693 193.635 62.888C192.867 63.4853 192.227 64.264 191.715 65.224C191.225 66.184 190.979 67.1547 190.979 68.136V76.04C190.979 76.3173 190.883 76.552 190.691 76.744C190.521 76.9147 190.297 77 190.019 77C189.742 77 189.507 76.9147 189.315 76.744C189.145 76.552 189.059 76.3173 189.059 76.04V61.704C189.059 61.4267 189.145 61.2027 189.315 61.032C189.507 60.84 189.742 60.744 190.019 60.744C190.297 60.744 190.521 60.84 190.691 61.032C190.883 61.2027 190.979 61.4267 190.979 61.704V64.52C191.47 63.304 192.206 62.3013 193.187 61.512C194.19 60.7013 195.363 60.2853 196.707 60.264Z" fill="black"/>
<line x1="101" y1="17" x2="101" y2="82" stroke="black" stroke-width="2"/>
<ellipse cx="49.9999" cy="54.052" rx="29.2733" ry="29.2406" fill="#6159E5"/>
<ellipse cx="49.9999" cy="54.052" rx="23.4186" ry="23.3925" fill="#3A3592"/>
<path d="M40.9286 36.3212C39.4406 36.7194 38.079 35.3594 38.4777 33.873L44.5573 11.2091C44.956 9.72284 46.8159 9.22502 47.9052 10.3131L64.5149 26.9042C65.6042 27.9923 65.1058 29.8501 63.6178 30.2484L40.9286 36.3212Z" fill="#FE654F"/>
<path d="M66.1079 80.1747C64.6208 80.5732 63.26 79.2124 63.6585 77.7252L69.7346 55.0486C70.1331 53.5615 71.992 53.0634 73.0807 54.1521L89.6811 70.7525C90.7698 71.8411 90.2717 73.7001 88.7845 74.0985L66.1079 80.1747Z" fill="#F7B538"/>
<path d="M15.7588 80.1747C14.2717 80.5732 12.9109 79.2124 13.3093 77.7252L19.3855 55.0486C19.784 53.5615 21.6429 53.0634 22.7316 54.1521L39.332 70.7525C40.4207 71.8411 39.9226 73.7001 38.4354 74.0985L15.7588 80.1747Z" fill="#82D4BB"/>
</svg>
