<svg width="200" height="200" viewBox="0 0 200 200" fill="none" xmlns="http://www.w3.org/2000/svg">
<rect width="200" height="200" fill="#3A3592"/>
<path d="M52.2768 200C-5.97472 82.5 134.925 96.5 74.6815 0L0 0L0 200L52.2768 200Z" fill="#F7B538"/>
<path d="M200 147.723C82.5 205.975 96.5 65.0753 0 125.319V200H200V147.723Z" fill="#6159E5"/>
<path d="M0 52.2768C117.5 -5.97472 103.5 134.925 200 74.6815V0L0 0V52.2768Z" fill="#82D4BB"/>
<path d="M147.723 0C205.975 117.5 65.0753 103.5 125.319 200H200V0H147.723Z" fill="#FE654F"/>
<path d="M36.304 43.24C36.72 43.24 37.064 43.384 37.336 43.672C37.624 43.944 37.768 44.264 37.768 44.632C37.768 45.032 37.624 45.36 37.336 45.616C37.064 45.872 36.72 46 36.304 46H28.264C27.848 46 27.496 45.864 27.208 45.592C26.936 45.304 26.8 44.952 26.8 44.536V30.664C26.8 30.248 26.936 29.904 27.208 29.632C27.496 29.344 27.848 29.2 28.264 29.2H36.304C36.72 29.2 37.064 29.336 37.336 29.608C37.624 29.864 37.768 30.2 37.768 30.616C37.768 31.016 37.632 31.344 37.36 31.6C37.088 31.84 36.736 31.96 36.304 31.96H29.8V36.04H35.224C35.64 36.04 35.984 36.176 36.256 36.448C36.544 36.704 36.688 37.04 36.688 37.456C36.688 37.856 36.552 38.184 36.28 38.44C36.008 38.68 35.656 38.8 35.224 38.8H29.8V43.24H36.304ZM50.5692 28.24C50.9852 28.24 51.3292 28.376 51.6012 28.648C51.8732 28.92 52.0092 29.272 52.0092 29.704V44.536C52.0092 44.952 51.8732 45.304 51.6012 45.592C51.3292 45.864 50.9852 46 50.5692 46C50.1532 46 49.8092 45.864 49.5372 45.592C49.2812 45.32 49.1452 44.976 49.1292 44.56C48.7292 45.024 48.1852 45.424 47.4972 45.76C46.8252 46.08 46.1132 46.24 45.3612 46.24C44.2572 46.24 43.2572 45.96 42.3612 45.4C41.4652 44.824 40.7532 44.032 40.2252 43.024C39.7132 42.016 39.4572 40.872 39.4572 39.592C39.4572 38.312 39.7132 37.168 40.2252 36.16C40.7372 35.136 41.4332 34.344 42.3132 33.784C43.2092 33.208 44.1932 32.92 45.2652 32.92C46.0332 32.92 46.7532 33.064 47.4252 33.352C48.0972 33.624 48.6652 33.976 49.1292 34.408V29.704C49.1292 29.288 49.2652 28.944 49.5372 28.672C49.8092 28.384 50.1532 28.24 50.5692 28.24ZM45.7212 43.6C46.7612 43.6 47.6092 43.224 48.2652 42.472C48.9212 41.704 49.2492 40.744 49.2492 39.592C49.2492 38.44 48.9212 37.48 48.2652 36.712C47.6092 35.944 46.7612 35.56 45.7212 35.56C44.6972 35.56 43.8572 35.944 43.2012 36.712C42.5452 37.48 42.2172 38.44 42.2172 39.592C42.2172 40.744 42.5372 41.704 43.1772 42.472C43.8332 43.224 44.6812 43.6 45.7212 43.6ZM65.0333 33.16C65.4493 33.16 65.7933 33.304 66.0653 33.592C66.3373 33.864 66.4733 34.208 66.4733 34.624V40.72C66.4733 42.448 65.9933 43.8 65.0333 44.776C64.0893 45.752 62.7373 46.24 60.9773 46.24C59.2173 46.24 57.8653 45.752 56.9213 44.776C55.9773 43.8 55.5053 42.448 55.5053 40.72V34.624C55.5053 34.208 55.6413 33.864 55.9133 33.592C56.1853 33.304 56.5293 33.16 56.9453 33.16C57.3613 33.16 57.7053 33.304 57.9773 33.592C58.2493 33.864 58.3853 34.208 58.3853 34.624V40.72C58.3853 41.696 58.6013 42.424 59.0333 42.904C59.4653 43.368 60.1133 43.6 60.9773 43.6C61.8573 43.6 62.5133 43.368 62.9453 42.904C63.3773 42.424 63.5933 41.696 63.5933 40.72V34.624C63.5933 34.208 63.7293 33.864 64.0013 33.592C64.2733 33.304 64.6173 33.16 65.0333 33.16ZM75.1833 32.92C76.5433 32.92 77.6393 33.136 78.4713 33.568C79.3033 33.984 79.7193 34.544 79.7193 35.248C79.7193 35.6 79.6153 35.912 79.4073 36.184C79.1993 36.44 78.9273 36.568 78.5913 36.568C78.3353 36.568 78.1273 36.536 77.9673 36.472C77.8073 36.392 77.6473 36.296 77.4873 36.184C77.3433 36.056 77.1993 35.952 77.0553 35.872C76.8953 35.792 76.6553 35.72 76.3353 35.656C76.0313 35.592 75.7833 35.56 75.5913 35.56C74.3913 35.56 73.4473 35.936 72.7593 36.688C72.0873 37.424 71.7513 38.392 71.7513 39.592C71.7513 40.744 72.0953 41.704 72.7833 42.472C73.4713 43.224 74.3513 43.6 75.4233 43.6C76.2073 43.6 76.7913 43.504 77.1753 43.312C77.2713 43.264 77.3993 43.184 77.5593 43.072C77.7353 42.944 77.8953 42.848 78.0393 42.784C78.1833 42.72 78.3593 42.688 78.5673 42.688C78.9673 42.688 79.2793 42.816 79.5033 43.072C79.7433 43.328 79.8633 43.656 79.8633 44.056C79.8633 44.44 79.6393 44.8 79.1913 45.136C78.7433 45.472 78.1513 45.744 77.4153 45.952C76.6793 46.144 75.8953 46.24 75.0633 46.24C73.8313 46.24 72.7433 45.952 71.7993 45.376C70.8713 44.8 70.1513 44.008 69.6393 43C69.1273 41.976 68.8713 40.84 68.8713 39.592C68.8713 38.296 69.1353 37.144 69.6633 36.136C70.2073 35.128 70.9593 34.344 71.9193 33.784C72.8793 33.208 73.9673 32.92 75.1833 32.92ZM92.3348 32.92C92.7508 32.92 93.0948 33.056 93.3668 33.328C93.6388 33.6 93.7748 33.952 93.7748 34.384V44.536C93.7748 44.952 93.6388 45.304 93.3668 45.592C93.0948 45.864 92.7508 46 92.3348 46C91.9188 46 91.5748 45.864 91.3028 45.592C91.0468 45.32 90.9108 44.976 90.8948 44.56C90.4948 45.024 89.9508 45.424 89.2628 45.76C88.5908 46.08 87.8788 46.24 87.1268 46.24C86.0228 46.24 85.0228 45.96 84.1268 45.4C83.2308 44.824 82.5188 44.032 81.9908 43.024C81.4788 42.016 81.2228 40.872 81.2228 39.592C81.2228 38.312 81.4788 37.168 81.9908 36.16C82.5028 35.136 83.1988 34.344 84.0788 33.784C84.9748 33.208 85.9588 32.92 87.0308 32.92C87.7988 32.92 88.5188 33.064 89.1908 33.352C89.8628 33.624 90.4308 33.976 90.8948 34.408V34.384C90.8948 33.968 91.0308 33.624 91.3028 33.352C91.5748 33.064 91.9188 32.92 92.3348 32.92ZM87.4868 43.6C88.5268 43.6 89.3748 43.224 90.0308 42.472C90.6868 41.704 91.0148 40.744 91.0148 39.592C91.0148 38.44 90.6868 37.48 90.0308 36.712C89.3748 35.944 88.5268 35.56 87.4868 35.56C86.4628 35.56 85.6228 35.944 84.9668 36.712C84.3108 37.48 83.9828 38.44 83.9828 39.592C83.9828 40.744 84.3028 41.704 84.9428 42.472C85.5988 43.224 86.4468 43.6 87.4868 43.6ZM103.088 43.288C103.312 43.288 103.512 43.4 103.688 43.624C103.88 43.832 103.976 44.112 103.976 44.464C103.976 44.896 103.736 45.264 103.256 45.568C102.792 45.856 102.264 46 101.672 46C100.68 46 99.8399 45.792 99.1519 45.376C98.4799 44.944 98.1439 44.04 98.1439 42.664V36.04H97.0399C96.6559 36.04 96.3359 35.912 96.0799 35.656C95.8239 35.4 95.6959 35.08 95.6959 34.696C95.6959 34.328 95.8239 34.024 96.0799 33.784C96.3359 33.528 96.6559 33.4 97.0399 33.4H98.1439V31.864C98.1439 31.448 98.2799 31.104 98.5519 30.832C98.8399 30.544 99.1919 30.4 99.6079 30.4C100.008 30.4 100.344 30.544 100.616 30.832C100.888 31.104 101.024 31.448 101.024 31.864V33.4H102.728C103.112 33.4 103.432 33.528 103.688 33.784C103.944 34.04 104.072 34.36 104.072 34.744C104.072 35.112 103.944 35.424 103.688 35.68C103.432 35.92 103.112 36.04 102.728 36.04H101.024V42.544C101.024 42.88 101.112 43.128 101.288 43.288C101.464 43.432 101.704 43.504 102.008 43.504C102.136 43.504 102.312 43.472 102.536 43.408C102.728 43.328 102.912 43.288 103.088 43.288ZM109.428 44.536C109.428 44.952 109.292 45.304 109.02 45.592C108.748 45.864 108.404 46 107.988 46C107.572 46 107.228 45.864 106.956 45.592C106.684 45.304 106.548 44.952 106.548 44.536V34.624C106.548 34.208 106.684 33.864 106.956 33.592C107.228 33.304 107.572 33.16 107.988 33.16C108.404 33.16 108.748 33.304 109.02 33.592C109.292 33.864 109.428 34.208 109.428 34.624V44.536ZM107.964 31.6C107.42 31.6 107.036 31.512 106.812 31.336C106.588 31.16 106.476 30.848 106.476 30.4V29.944C106.476 29.496 106.596 29.184 106.836 29.008C107.076 28.832 107.46 28.744 107.988 28.744C108.548 28.744 108.94 28.832 109.164 29.008C109.388 29.184 109.5 29.496 109.5 29.944V30.4C109.5 30.864 109.38 31.184 109.14 31.36C108.916 31.52 108.524 31.6 107.964 31.6ZM124.724 39.592C124.724 40.872 124.436 42.024 123.86 43.048C123.284 44.056 122.492 44.84 121.484 45.4C120.492 45.96 119.396 46.24 118.196 46.24C116.98 46.24 115.876 45.96 114.884 45.4C113.892 44.84 113.108 44.056 112.532 43.048C111.956 42.024 111.668 40.872 111.668 39.592C111.668 38.312 111.956 37.168 112.532 36.16C113.108 35.136 113.892 34.344 114.884 33.784C115.876 33.208 116.98 32.92 118.196 32.92C119.396 32.92 120.492 33.208 121.484 33.784C122.492 34.344 123.284 35.136 123.86 36.16C124.436 37.168 124.724 38.312 124.724 39.592ZM121.844 39.592C121.844 38.808 121.676 38.112 121.34 37.504C121.02 36.88 120.58 36.4 120.02 36.064C119.476 35.728 118.868 35.56 118.196 35.56C117.524 35.56 116.908 35.728 116.348 36.064C115.804 36.4 115.364 36.88 115.028 37.504C114.708 38.112 114.548 38.808 114.548 39.592C114.548 40.376 114.708 41.072 115.028 41.68C115.364 42.288 115.804 42.76 116.348 43.096C116.908 43.432 117.524 43.6 118.196 43.6C118.868 43.6 119.476 43.432 120.02 43.096C120.58 42.76 121.02 42.288 121.34 41.68C121.676 41.072 121.844 40.376 121.844 39.592ZM133.994 32.92C135.626 32.92 136.754 33.408 137.378 34.384C138.002 35.344 138.314 36.68 138.314 38.392V44.536C138.314 44.952 138.178 45.304 137.906 45.592C137.634 45.864 137.29 46 136.874 46C136.458 46 136.114 45.864 135.842 45.592C135.57 45.304 135.434 44.952 135.434 44.536V38.392C135.434 37.512 135.25 36.824 134.882 36.328C134.514 35.816 133.882 35.56 132.986 35.56C132.058 35.56 131.33 35.832 130.802 36.376C130.274 36.904 130.01 37.576 130.01 38.392V44.536C130.01 44.952 129.874 45.304 129.602 45.592C129.33 45.864 128.986 46 128.57 46C128.154 46 127.81 45.864 127.538 45.592C127.266 45.304 127.13 44.952 127.13 44.536V34.624C127.13 34.208 127.266 33.864 127.538 33.592C127.81 33.304 128.154 33.16 128.57 33.16C128.986 33.16 129.33 33.304 129.602 33.592C129.874 33.864 130.01 34.208 130.01 34.624V35.032C130.442 34.456 131.002 33.96 131.69 33.544C132.394 33.128 133.162 32.92 133.994 32.92Z" fill="white"/>
</svg>
