<svg width="200" height="200" viewBox="0 0 200 200" fill="none" xmlns="http://www.w3.org/2000/svg">
<rect width="200" height="200" fill="#82D4BB"/>
<path d="M200 100C174 165.183 55.8333 174.773 0 171.42V200H200V100Z" fill="#F7B538"/>
<path d="M200 163C200 41.8716 15 58.8211 15 0.5L200 0V163Z" fill="#FE654F"/>
<path d="M194.913 0.018683C76.3616 1.39275 15.6507 78.2181 0 117V0.5L194.913 0.018683C196.597 -0.000833386 198.293 -0.00512866 200 0.00612236L194.913 0.018683Z" fill="#6159E5"/>
<path d="M29.8 31.96V36.184H34.984C35.4 36.184 35.744 36.32 36.016 36.592C36.304 36.848 36.448 37.184 36.448 37.6C36.448 37.952 36.304 38.264 36.016 38.536C35.744 38.808 35.4 38.944 34.984 38.944H29.8V44.536C29.8 44.952 29.648 45.304 29.344 45.592C29.056 45.864 28.712 46 28.312 46C27.864 46 27.496 45.864 27.208 45.592C26.936 45.32 26.8 44.968 26.8 44.536V30.664C26.8 30.248 26.936 29.904 27.208 29.632C27.496 29.344 27.848 29.2 28.264 29.2H36.064C36.48 29.2 36.824 29.336 37.096 29.608C37.384 29.864 37.528 30.2 37.528 30.616C37.528 30.968 37.384 31.28 37.096 31.552C36.824 31.824 36.48 31.96 36.064 31.96H29.8ZM42.7486 44.536C42.7486 44.952 42.6126 45.304 42.3406 45.592C42.0686 45.864 41.7246 46 41.3086 46C40.8926 46 40.5486 45.864 40.2766 45.592C40.0046 45.304 39.8686 44.952 39.8686 44.536V34.624C39.8686 34.208 40.0046 33.864 40.2766 33.592C40.5486 33.304 40.8926 33.16 41.3086 33.16C41.7246 33.16 42.0686 33.304 42.3406 33.592C42.6126 33.864 42.7486 34.208 42.7486 34.624V44.536ZM41.2846 31.6C40.7406 31.6 40.3566 31.512 40.1326 31.336C39.9086 31.16 39.7966 30.848 39.7966 30.4V29.944C39.7966 29.496 39.9166 29.184 40.1566 29.008C40.3966 28.832 40.7806 28.744 41.3086 28.744C41.8686 28.744 42.2606 28.832 42.4846 29.008C42.7086 29.184 42.8206 29.496 42.8206 29.944V30.4C42.8206 30.864 42.7006 31.184 42.4606 31.36C42.2366 31.52 41.8446 31.6 41.2846 31.6ZM51.3004 32.92C52.6604 32.92 53.7564 33.136 54.5884 33.568C55.4204 33.984 55.8364 34.544 55.8364 35.248C55.8364 35.6 55.7324 35.912 55.5244 36.184C55.3164 36.44 55.0444 36.568 54.7084 36.568C54.4524 36.568 54.2444 36.536 54.0844 36.472C53.9244 36.392 53.7644 36.296 53.6044 36.184C53.4604 36.056 53.3164 35.952 53.1724 35.872C53.0124 35.792 52.7724 35.72 52.4524 35.656C52.1484 35.592 51.9004 35.56 51.7084 35.56C50.5084 35.56 49.5644 35.936 48.8764 36.688C48.2044 37.424 47.8684 38.392 47.8684 39.592C47.8684 40.744 48.2124 41.704 48.9004 42.472C49.5884 43.224 50.4684 43.6 51.5404 43.6C52.3244 43.6 52.9084 43.504 53.2924 43.312C53.3884 43.264 53.5164 43.184 53.6764 43.072C53.8524 42.944 54.0124 42.848 54.1564 42.784C54.3004 42.72 54.4764 42.688 54.6844 42.688C55.0844 42.688 55.3964 42.816 55.6204 43.072C55.8604 43.328 55.9804 43.656 55.9804 44.056C55.9804 44.44 55.7564 44.8 55.3084 45.136C54.8604 45.472 54.2684 45.744 53.5324 45.952C52.7964 46.144 52.0124 46.24 51.1804 46.24C49.9484 46.24 48.8604 45.952 47.9164 45.376C46.9884 44.8 46.2684 44.008 45.7564 43C45.2444 41.976 44.9884 40.84 44.9884 39.592C44.9884 38.296 45.2524 37.144 45.7804 36.136C46.3244 35.128 47.0764 34.344 48.0364 33.784C48.9964 33.208 50.0844 32.92 51.3004 32.92ZM64.252 43.288C64.476 43.288 64.676 43.4 64.852 43.624C65.044 43.832 65.14 44.112 65.14 44.464C65.14 44.896 64.9 45.264 64.42 45.568C63.956 45.856 63.428 46 62.836 46C61.844 46 61.004 45.792 60.316 45.376C59.644 44.944 59.308 44.04 59.308 42.664V36.04H58.204C57.82 36.04 57.5 35.912 57.244 35.656C56.988 35.4 56.86 35.08 56.86 34.696C56.86 34.328 56.988 34.024 57.244 33.784C57.5 33.528 57.82 33.4 58.204 33.4H59.308V31.864C59.308 31.448 59.444 31.104 59.716 30.832C60.004 30.544 60.356 30.4 60.772 30.4C61.172 30.4 61.508 30.544 61.78 30.832C62.052 31.104 62.188 31.448 62.188 31.864V33.4H63.892C64.276 33.4 64.596 33.528 64.852 33.784C65.108 34.04 65.236 34.36 65.236 34.744C65.236 35.112 65.108 35.424 64.852 35.68C64.596 35.92 64.276 36.04 63.892 36.04H62.188V42.544C62.188 42.88 62.276 43.128 62.452 43.288C62.628 43.432 62.868 43.504 63.172 43.504C63.3 43.504 63.476 43.472 63.7 43.408C63.892 43.328 64.076 43.288 64.252 43.288ZM70.5923 44.536C70.5923 44.952 70.4563 45.304 70.1843 45.592C69.9123 45.864 69.5683 46 69.1523 46C68.7363 46 68.3923 45.864 68.1203 45.592C67.8483 45.304 67.7123 44.952 67.7123 44.536V34.624C67.7123 34.208 67.8483 33.864 68.1203 33.592C68.3923 33.304 68.7363 33.16 69.1523 33.16C69.5683 33.16 69.9123 33.304 70.1843 33.592C70.4563 33.864 70.5923 34.208 70.5923 34.624V44.536ZM69.1283 31.6C68.5843 31.6 68.2003 31.512 67.9763 31.336C67.7523 31.16 67.6403 30.848 67.6403 30.4V29.944C67.6403 29.496 67.7603 29.184 68.0003 29.008C68.2403 28.832 68.6243 28.744 69.1523 28.744C69.7123 28.744 70.1043 28.832 70.3283 29.008C70.5523 29.184 70.6643 29.496 70.6643 29.944V30.4C70.6643 30.864 70.5443 31.184 70.3043 31.36C70.0803 31.52 69.6883 31.6 69.1283 31.6ZM85.8882 39.592C85.8882 40.872 85.6002 42.024 85.0242 43.048C84.4482 44.056 83.6562 44.84 82.6482 45.4C81.6562 45.96 80.5602 46.24 79.3602 46.24C78.1442 46.24 77.0402 45.96 76.0482 45.4C75.0562 44.84 74.2722 44.056 73.6962 43.048C73.1202 42.024 72.8322 40.872 72.8322 39.592C72.8322 38.312 73.1202 37.168 73.6962 36.16C74.2722 35.136 75.0562 34.344 76.0482 33.784C77.0402 33.208 78.1442 32.92 79.3602 32.92C80.5602 32.92 81.6562 33.208 82.6482 33.784C83.6562 34.344 84.4482 35.136 85.0242 36.16C85.6002 37.168 85.8882 38.312 85.8882 39.592ZM83.0082 39.592C83.0082 38.808 82.8402 38.112 82.5042 37.504C82.1842 36.88 81.7442 36.4 81.1842 36.064C80.6402 35.728 80.0322 35.56 79.3602 35.56C78.6882 35.56 78.0722 35.728 77.5122 36.064C76.9682 36.4 76.5282 36.88 76.1922 37.504C75.8722 38.112 75.7122 38.808 75.7122 39.592C75.7122 40.376 75.8722 41.072 76.1922 41.68C76.5282 42.288 76.9682 42.76 77.5122 43.096C78.0722 43.432 78.6882 43.6 79.3602 43.6C80.0322 43.6 80.6402 43.432 81.1842 43.096C81.7442 42.76 82.1842 42.288 82.5042 41.68C82.8402 41.072 83.0082 40.376 83.0082 39.592ZM95.1584 32.92C96.7904 32.92 97.9184 33.408 98.5424 34.384C99.1664 35.344 99.4784 36.68 99.4784 38.392V44.536C99.4784 44.952 99.3424 45.304 99.0704 45.592C98.7984 45.864 98.4544 46 98.0384 46C97.6224 46 97.2784 45.864 97.0064 45.592C96.7344 45.304 96.5984 44.952 96.5984 44.536V38.392C96.5984 37.512 96.4144 36.824 96.0464 36.328C95.6784 35.816 95.0464 35.56 94.1504 35.56C93.2224 35.56 92.4944 35.832 91.9664 36.376C91.4384 36.904 91.1744 37.576 91.1744 38.392V44.536C91.1744 44.952 91.0384 45.304 90.7664 45.592C90.4944 45.864 90.1504 46 89.7344 46C89.3184 46 88.9744 45.864 88.7024 45.592C88.4304 45.304 88.2944 44.952 88.2944 44.536V34.624C88.2944 34.208 88.4304 33.864 88.7024 33.592C88.9744 33.304 89.3184 33.16 89.7344 33.16C90.1504 33.16 90.4944 33.304 90.7664 33.592C91.0384 33.864 91.1744 34.208 91.1744 34.624V35.032C91.6064 34.456 92.1664 33.96 92.8544 33.544C93.5584 33.128 94.3264 32.92 95.1584 32.92Z" fill="white"/>
</svg>
