<svg width="150" height="260" viewBox="0 0 150 260" fill="none" xmlns="http://www.w3.org/2000/svg">
<circle cx="75" cy="50" r="50" fill="#333333"/>
<path d="M125 50C125 56.5661 123.707 63.0679 121.194 69.1342C118.681 75.2005 114.998 80.7124 110.355 85.3553C105.712 89.9983 100.2 93.6812 94.1342 96.194C88.0679 98.7067 81.5661 100 75 100L75 50H125Z" fill="#F7B538"/>
<path d="M25 50C25 56.5661 26.2933 63.0679 28.806 69.1342C31.3188 75.2004 35.0017 80.7124 39.6447 85.3553C44.2876 89.9983 49.7995 93.6812 55.8658 96.194C61.9321 98.7067 68.4339 100 75 100L75 50L25 50Z" fill="#FE654F"/>
<path fill-rule="evenodd" clip-rule="evenodd" d="M50 75C63.8071 75 75 63.8071 75 50H25C25 63.8071 36.1929 75 50 75Z" fill="#82D4BB"/>
<path d="M25 50C25 36.7392 30.2678 24.0215 39.6447 14.6447C49.0215 5.26784 61.7392 -1.58134e-07 75 0V50L25 50Z" fill="#82D4BB"/>
<path fill-rule="evenodd" clip-rule="evenodd" d="M75 50V0C61.1929 0 50 11.1929 50 25C50 38.8071 61.1929 50 75 50Z" fill="#6159E5"/>
<path d="M125 50C125 43.4339 123.707 36.9321 121.194 30.8658C118.681 24.7995 114.998 19.2876 110.355 14.6447C105.712 10.0017 100.2 6.31876 94.1342 3.80602C88.0679 1.29329 81.5661 -2.87013e-07 75 0L75 50H125Z" fill="#6159E5"/>
<path fill-rule="evenodd" clip-rule="evenodd" d="M125 50C125 36.1929 113.807 25 100 25C86.1929 25 75 36.1929 75 50H125Z" fill="#F7B538"/>
<path fill-rule="evenodd" clip-rule="evenodd" d="M75 100C88.8071 100 100 88.8071 100 75C100 61.1929 88.8071 50 75 50V100Z" fill="#FE654F"/>
<path d="M0 185C1.73895e-06 165.109 7.90176 146.032 21.967 131.967C36.0322 117.902 55.1087 110 75 110C94.8912 110 113.968 117.902 128.033 131.967C142.098 146.032 150 165.109 150 185L75 185L0 185Z" fill="#828282"/>
<path d="M13.52 226.142C13.388 226.142 13.2707 226.098 13.168 226.01C13.08 225.922 13.0433 225.812 13.058 225.68L13.41 223.282H11.54C11.3933 223.282 11.2687 223.238 11.166 223.15C11.078 223.047 11.034 222.923 11.034 222.776V221.544C11.034 221.397 11.078 221.28 11.166 221.192C11.2687 221.089 11.3933 221.038 11.54 221.038H13.74L14.246 217.694H12.112C11.9653 217.694 11.8407 217.65 11.738 217.562C11.65 217.459 11.606 217.335 11.606 217.188V215.956C11.606 215.809 11.65 215.692 11.738 215.604C11.8407 215.501 11.9653 215.45 12.112 215.45H14.576L14.95 213.052C14.9793 212.92 15.038 212.81 15.126 212.722C15.214 212.634 15.324 212.59 15.456 212.59H16.732C16.864 212.59 16.974 212.634 17.062 212.722C17.15 212.81 17.1867 212.92 17.172 213.052L16.82 215.45H19.57L19.944 213.052C19.9733 212.92 20.032 212.81 20.12 212.722C20.208 212.634 20.318 212.59 20.45 212.59H21.726C21.858 212.59 21.968 212.634 22.056 212.722C22.144 212.81 22.1807 212.92 22.166 213.052L21.814 215.45H23.662C23.8087 215.45 23.926 215.501 24.014 215.604C24.1167 215.692 24.168 215.809 24.168 215.956V217.188C24.168 217.335 24.1167 217.459 24.014 217.562C23.926 217.65 23.8087 217.694 23.662 217.694H21.484L21 221.038H23.09C23.2367 221.038 23.354 221.089 23.442 221.192C23.5447 221.28 23.596 221.397 23.596 221.544V222.776C23.596 222.923 23.5447 223.047 23.442 223.15C23.354 223.238 23.2367 223.282 23.09 223.282H20.648L20.296 225.68C20.2667 225.812 20.208 225.922 20.12 226.01C20.032 226.098 19.922 226.142 19.79 226.142H18.514C18.382 226.142 18.2647 226.098 18.162 226.01C18.074 225.922 18.0373 225.812 18.052 225.68L18.404 223.282H15.654L15.302 225.68C15.2727 225.812 15.214 225.922 15.126 226.01C15.038 226.098 14.928 226.142 14.796 226.142H13.52ZM18.734 221.038L19.24 217.694H16.49L16.006 221.038H18.734ZM27.4549 227C27.3083 227 27.1836 226.949 27.0809 226.846C26.9783 226.743 26.9269 226.619 26.9269 226.472V212.15C26.9269 211.989 26.9709 211.857 27.0589 211.754C27.1616 211.651 27.2936 211.6 27.4549 211.6H29.1489C29.3249 211.6 29.4569 211.637 29.5449 211.71C29.6329 211.769 29.7136 211.849 29.7869 211.952L36.1229 221.808V212.15C36.1229 211.989 36.1669 211.857 36.2549 211.754C36.3576 211.651 36.4896 211.6 36.6509 211.6H38.4989C38.6603 211.6 38.7923 211.651 38.8949 211.754C38.9976 211.857 39.0489 211.989 39.0489 212.15V226.45C39.0489 226.611 38.9976 226.743 38.8949 226.846C38.7923 226.949 38.6676 227 38.5209 227H36.8049C36.5556 227 36.3429 226.883 36.1669 226.648L29.8529 217.012V226.472C29.8529 226.633 29.8016 226.765 29.6989 226.868C29.5963 226.956 29.4643 227 29.3029 227H27.4549ZM43.0096 227C42.863 227 42.7383 226.949 42.6356 226.846C42.533 226.743 42.4816 226.619 42.4816 226.472V212.128C42.4816 211.967 42.533 211.842 42.6356 211.754C42.7383 211.651 42.863 211.6 43.0096 211.6H45.0776C45.239 211.6 45.3636 211.651 45.4516 211.754C45.5543 211.842 45.6056 211.967 45.6056 212.128V226.472C45.6056 226.619 45.5543 226.743 45.4516 226.846C45.3636 226.949 45.239 227 45.0776 227H43.0096ZM54.9958 227.22C52.9718 227.22 51.4025 226.699 50.2878 225.658C49.1878 224.617 48.6012 223.15 48.5278 221.258C48.5132 220.862 48.5058 220.217 48.5058 219.322C48.5058 218.413 48.5132 217.753 48.5278 217.342C48.6012 215.465 49.1952 214.005 50.3098 212.964C51.4392 211.908 53.0012 211.38 54.9958 211.38C56.3012 211.38 57.4378 211.607 58.4058 212.062C59.3738 212.502 60.1218 213.111 60.6498 213.888C61.1778 214.651 61.4565 215.516 61.4858 216.484V216.528C61.4858 216.645 61.4345 216.748 61.3318 216.836C61.2438 216.909 61.1412 216.946 61.0238 216.946H58.9338C58.7578 216.946 58.6258 216.909 58.5378 216.836C58.4498 216.763 58.3765 216.623 58.3178 216.418C58.0832 215.494 57.6945 214.849 57.1518 214.482C56.6092 214.101 55.8832 213.91 54.9738 213.91C52.8618 213.91 51.7618 215.091 51.6738 217.452C51.6592 217.848 51.6518 218.457 51.6518 219.278C51.6518 220.099 51.6592 220.723 51.6738 221.148C51.7618 223.509 52.8618 224.69 54.9738 224.69C55.8832 224.69 56.6092 224.499 57.1518 224.118C57.7092 223.737 58.0978 223.091 58.3178 222.182C58.3618 221.977 58.4278 221.837 58.5158 221.764C58.6185 221.691 58.7578 221.654 58.9338 221.654H61.0238C61.1558 221.654 61.2658 221.698 61.3538 221.786C61.4565 221.874 61.5005 221.984 61.4858 222.116C61.4565 223.084 61.1778 223.957 60.6498 224.734C60.1218 225.497 59.3738 226.105 58.4058 226.56C57.4378 227 56.3012 227.22 54.9958 227.22ZM64.6229 227C64.4762 227 64.3516 226.949 64.2489 226.846C64.1462 226.743 64.0949 226.619 64.0949 226.472V212.15C64.0949 211.989 64.1389 211.857 64.2269 211.754C64.3296 211.651 64.4616 211.6 64.6229 211.6H66.5589C66.7202 211.6 66.8522 211.651 66.9549 211.754C67.0576 211.857 67.1089 211.989 67.1089 212.15V217.298L72.0809 211.996C72.2716 211.732 72.5576 211.6 72.9389 211.6H75.1169C75.2342 211.6 75.3369 211.644 75.4249 211.732C75.5276 211.82 75.5789 211.93 75.5789 212.062C75.5789 212.165 75.5496 212.253 75.4909 212.326L69.4409 218.97L75.9089 226.252C75.9822 226.34 76.0189 226.435 76.0189 226.538C76.0189 226.67 75.9676 226.78 75.8649 226.868C75.7769 226.956 75.6742 227 75.5569 227H73.2909C72.9242 227 72.6382 226.868 72.4329 226.604L67.1089 220.774V226.472C67.1089 226.633 67.0576 226.765 66.9549 226.868C66.8522 226.956 66.7202 227 66.5589 227H64.6229ZM78.5233 227C78.3766 227 78.252 226.949 78.1493 226.846C78.0466 226.743 77.9953 226.619 77.9953 226.472V212.15C77.9953 211.989 78.0393 211.857 78.1273 211.754C78.23 211.651 78.362 211.6 78.5233 211.6H80.2173C80.3933 211.6 80.5253 211.637 80.6133 211.71C80.7013 211.769 80.782 211.849 80.8553 211.952L87.1913 221.808V212.15C87.1913 211.989 87.2353 211.857 87.3233 211.754C87.426 211.651 87.558 211.6 87.7193 211.6H89.5673C89.7286 211.6 89.8606 211.651 89.9633 211.754C90.066 211.857 90.1173 211.989 90.1173 212.15V226.45C90.1173 226.611 90.066 226.743 89.9633 226.846C89.8606 226.949 89.736 227 89.5893 227H87.8733C87.624 227 87.4113 226.883 87.2353 226.648L80.9213 217.012V226.472C80.9213 226.633 80.87 226.765 80.7673 226.868C80.6646 226.956 80.5326 227 80.3713 227H78.5233ZM92.604 227C92.4867 227 92.3767 226.956 92.274 226.868C92.186 226.78 92.142 226.67 92.142 226.538L92.186 226.34L97.488 212.15C97.5907 211.783 97.8473 211.6 98.258 211.6H100.656C101.037 211.6 101.294 211.783 101.426 212.15L106.728 226.34C106.743 226.384 106.75 226.45 106.75 226.538C106.75 226.67 106.706 226.78 106.618 226.868C106.53 226.956 106.427 227 106.31 227H104.396C104.205 227 104.059 226.956 103.956 226.868C103.853 226.78 103.787 226.685 103.758 226.582L102.724 223.898H96.19L95.156 226.582C95.0387 226.861 94.826 227 94.518 227H92.604ZM101.954 221.368L99.446 214.57L96.96 221.368H101.954ZM109.354 227C109.193 227 109.061 226.956 108.958 226.868C108.855 226.765 108.804 226.633 108.804 226.472V212.15C108.804 211.989 108.855 211.857 108.958 211.754C109.061 211.651 109.193 211.6 109.354 211.6H111.092C111.4 211.6 111.62 211.739 111.752 212.018L115.998 219.938L120.288 212.018C120.435 211.739 120.655 211.6 120.948 211.6H122.664C122.825 211.6 122.957 211.651 123.06 211.754C123.163 211.857 123.214 211.989 123.214 212.15V226.472C123.214 226.633 123.163 226.765 123.06 226.868C122.957 226.956 122.825 227 122.664 227H120.816C120.669 227 120.545 226.949 120.442 226.846C120.339 226.743 120.288 226.619 120.288 226.472V216.946L117.208 222.82C117.017 223.143 116.768 223.304 116.46 223.304H115.558C115.25 223.304 115.001 223.143 114.81 222.82L111.73 216.946V226.472C111.73 226.619 111.679 226.743 111.576 226.846C111.488 226.949 111.363 227 111.202 227H109.354ZM127.164 227C127.017 227 126.893 226.949 126.79 226.846C126.687 226.743 126.636 226.619 126.636 226.472V212.15C126.636 211.989 126.68 211.857 126.768 211.754C126.871 211.651 127.003 211.6 127.164 211.6H136.844C137.005 211.6 137.137 211.651 137.24 211.754C137.343 211.857 137.394 211.989 137.394 212.15V213.602C137.394 213.763 137.343 213.895 137.24 213.998C137.137 214.086 137.005 214.13 136.844 214.13H129.606V218.024H136.36C136.521 218.024 136.653 218.075 136.756 218.178C136.859 218.266 136.91 218.391 136.91 218.552V219.916C136.91 220.077 136.859 220.209 136.756 220.312C136.653 220.4 136.521 220.444 136.36 220.444H129.606V224.47H137.02C137.181 224.47 137.313 224.521 137.416 224.624C137.519 224.727 137.57 224.859 137.57 225.02V226.472C137.57 226.633 137.519 226.765 137.416 226.868C137.313 226.956 137.181 227 137.02 227H127.164Z" fill="black"/>
</svg>
