<svg width="83" height="79" viewBox="0 0 83 79" fill="none" xmlns="http://www.w3.org/2000/svg">
<path d="M39.3808 78.8238C56.6749 78.8238 70.6945 64.8198 70.6945 47.5451C70.6945 30.2703 56.6749 16.2664 39.3808 16.2664C22.0868 16.2664 8.06714 30.2703 8.06714 47.5451C8.06714 64.8198 22.0868 78.8238 39.3808 78.8238Z" fill="#6159E5"/>
<path d="M39.381 72.568C53.2162 72.568 64.432 61.3648 64.432 47.545C64.432 33.7252 53.2162 22.522 39.381 22.522C25.5457 22.522 14.33 33.7252 14.33 47.545C14.33 61.3648 25.5457 72.568 39.381 72.568Z" fill="#3A3592"/>
<path d="M29.4437 28.6407C27.9557 29.0389 26.5941 27.6789 26.9928 26.1926L33.6212 1.48282C34.0199 -0.00358498 35.8799 -0.501364 36.9692 0.586716L55.0782 18.6755C56.1675 19.7636 55.6691 21.6214 54.1811 22.0197L29.4437 28.6407Z" fill="#FE654F"/>
<path d="M56.3785 75.551C54.8913 75.9494 53.5305 74.5886 53.929 73.1015L60.5536 48.3778C60.9521 46.8907 62.811 46.3926 63.8997 47.4813L81.9987 65.5802C83.0873 66.6689 82.5892 68.5278 81.1021 68.9263L56.3785 75.551Z" fill="#F7B538"/>
<path d="M2.51978 75.551C1.03258 75.9494 -0.32822 74.5886 0.0702799 73.1015L6.69498 48.3778C7.09348 46.8907 8.95238 46.3926 10.041 47.4813L28.14 65.5802C29.2287 66.6689 28.7306 68.5278 27.2434 68.9263L2.51978 75.551Z" fill="#82D4BB"/>
</svg>
