<svg width="200" height="200" viewBox="0 0 200 200" fill="none" xmlns="http://www.w3.org/2000/svg">
<rect width="200" height="200" fill="#82D4BB"/>
<path d="M200 100C174 165.183 55.8333 174.773 0 171.42V200H200V100Z" fill="#F7B538"/>
<path d="M200 163C200 41.8716 15 58.8211 15 0.5L200 0V163Z" fill="#FE654F"/>
<path d="M194.913 0.018683C76.3616 1.39275 15.6507 78.2181 0 117V0.5L194.913 0.018683C196.597 -0.000833386 198.293 -0.00512866 200 0.00612236L194.913 0.018683Z" fill="#6159E5"/>
<path d="M41.368 29.176C41.768 29.176 42.112 29.32 42.4 29.608C42.704 29.88 42.856 30.224 42.856 30.64V44.536C42.856 44.952 42.72 45.304 42.448 45.592C42.176 45.864 41.816 46 41.368 46C40.92 46 40.552 45.864 40.264 45.592C39.992 45.32 39.856 44.968 39.856 44.536V34.864L35.896 40.912C35.736 41.104 35.552 41.264 35.344 41.392C35.136 41.504 34.92 41.552 34.696 41.536C34.488 41.552 34.28 41.504 34.072 41.392C33.864 41.264 33.68 41.104 33.52 40.912L29.56 34.648V44.536C29.56 44.968 29.432 45.32 29.176 45.592C28.92 45.864 28.584 46 28.168 46C27.768 46 27.44 45.864 27.184 45.592C26.928 45.304 26.8 44.952 26.8 44.536V30.64C26.8 30.24 26.944 29.896 27.232 29.608C27.536 29.32 27.896 29.176 28.312 29.176C28.552 29.176 28.792 29.24 29.032 29.368C29.272 29.48 29.456 29.632 29.584 29.824L34.816 37.864L40.192 29.824C40.32 29.632 40.488 29.48 40.696 29.368C40.92 29.24 41.144 29.176 41.368 29.176ZM48.9361 44.536C48.9361 44.952 48.8001 45.304 48.5281 45.592C48.2561 45.864 47.9121 46 47.4961 46C47.0801 46 46.7361 45.864 46.4641 45.592C46.1921 45.304 46.0561 44.952 46.0561 44.536V34.624C46.0561 34.208 46.1921 33.864 46.4641 33.592C46.7361 33.304 47.0801 33.16 47.4961 33.16C47.9121 33.16 48.2561 33.304 48.5281 33.592C48.8001 33.864 48.9361 34.208 48.9361 34.624V44.536ZM47.4721 31.6C46.9281 31.6 46.5441 31.512 46.3201 31.336C46.0961 31.16 45.9841 30.848 45.9841 30.4V29.944C45.9841 29.496 46.1041 29.184 46.3441 29.008C46.5841 28.832 46.9681 28.744 47.4961 28.744C48.0561 28.744 48.4481 28.832 48.6721 29.008C48.8961 29.184 49.0081 29.496 49.0081 29.944V30.4C49.0081 30.864 48.8881 31.184 48.6481 31.36C48.4241 31.52 48.0321 31.6 47.4721 31.6ZM51.1519 44.008C51.0079 43.816 50.9359 43.576 50.9359 43.288C50.9359 42.872 51.1439 42.52 51.5599 42.232C51.7839 42.088 52.0159 42.016 52.2559 42.016C52.5919 42.016 52.9119 42.168 53.2159 42.472C53.6959 42.968 54.1919 43.336 54.7039 43.576C55.2319 43.816 55.8639 43.936 56.5999 43.936C57.8479 43.888 58.4719 43.416 58.4719 42.52C58.4719 42.056 58.2559 41.704 57.8239 41.464C57.4079 41.224 56.7519 40.984 55.8559 40.744C54.9279 40.488 54.1679 40.232 53.5759 39.976C52.9999 39.72 52.4959 39.336 52.0639 38.824C51.6479 38.296 51.4399 37.592 51.4399 36.712C51.4399 35.944 51.6559 35.28 52.0879 34.72C52.5359 34.144 53.1119 33.704 53.8159 33.4C54.5359 33.08 55.2959 32.92 56.0959 32.92C56.9119 32.92 57.7279 33.072 58.5439 33.376C59.3599 33.68 59.9999 34.128 60.4639 34.72C60.6719 34.976 60.7759 35.264 60.7759 35.584C60.7759 35.952 60.6239 36.256 60.3199 36.496C60.0959 36.672 59.8399 36.76 59.5519 36.76C59.1999 36.76 58.9119 36.648 58.6879 36.424C58.3999 36.072 58.0239 35.792 57.5599 35.584C57.1119 35.376 56.5999 35.272 56.0239 35.272C54.8079 35.272 54.1999 35.712 54.1999 36.592C54.1999 36.944 54.3119 37.232 54.5359 37.456C54.7599 37.664 55.0399 37.832 55.3759 37.96C55.7279 38.072 56.2159 38.216 56.8399 38.392C57.7039 38.632 58.4239 38.88 58.9999 39.136C59.5759 39.392 60.0639 39.784 60.4639 40.312C60.8639 40.84 61.0639 41.536 61.0639 42.4C61.0639 43.184 60.8319 43.872 60.3679 44.464C59.9039 45.04 59.3039 45.48 58.5679 45.784C57.8479 46.088 57.1039 46.24 56.3359 46.24C55.2799 46.24 54.2959 46.064 53.3839 45.712C52.4719 45.36 51.7279 44.792 51.1519 44.008ZM69.6661 43.288C69.8901 43.288 70.0901 43.4 70.2661 43.624C70.4581 43.832 70.5541 44.112 70.5541 44.464C70.5541 44.896 70.3141 45.264 69.8341 45.568C69.3701 45.856 68.8421 46 68.2501 46C67.2581 46 66.4181 45.792 65.7301 45.376C65.0581 44.944 64.7221 44.04 64.7221 42.664V36.04H63.6181C63.2341 36.04 62.9141 35.912 62.6581 35.656C62.4021 35.4 62.2741 35.08 62.2741 34.696C62.2741 34.328 62.4021 34.024 62.6581 33.784C62.9141 33.528 63.2341 33.4 63.6181 33.4H64.7221V31.864C64.7221 31.448 64.8581 31.104 65.1301 30.832C65.4181 30.544 65.7701 30.4 66.1861 30.4C66.5861 30.4 66.9221 30.544 67.1941 30.832C67.4661 31.104 67.6021 31.448 67.6021 31.864V33.4H69.3061C69.6901 33.4 70.0101 33.528 70.2661 33.784C70.5221 34.04 70.6501 34.36 70.6501 34.744C70.6501 35.112 70.5221 35.424 70.2661 35.68C70.0101 35.92 69.6901 36.04 69.3061 36.04H67.6021V42.544C67.6021 42.88 67.6901 43.128 67.8661 43.288C68.0421 43.432 68.2821 43.504 68.5861 43.504C68.7141 43.504 68.8901 43.472 69.1141 43.408C69.3061 43.328 69.4901 43.288 69.6661 43.288ZM84.6972 39.28C84.6812 39.664 84.5292 39.976 84.2412 40.216C83.9532 40.456 83.6172 40.576 83.2332 40.576H75.3132C75.5052 41.52 75.9452 42.264 76.6332 42.808C77.3212 43.336 78.0972 43.6 78.9612 43.6C79.6172 43.6 80.1292 43.544 80.4972 43.432C80.8652 43.304 81.1532 43.176 81.3612 43.048C81.5852 42.904 81.7372 42.808 81.8172 42.76C82.1052 42.616 82.3772 42.544 82.6332 42.544C82.9692 42.544 83.2572 42.664 83.4972 42.904C83.7372 43.144 83.8572 43.424 83.8572 43.744C83.8572 44.176 83.6332 44.568 83.1852 44.92C82.7372 45.288 82.1372 45.6 81.3852 45.856C80.6332 46.112 79.8732 46.24 79.1052 46.24C77.7612 46.24 76.5852 45.96 75.5772 45.4C74.5852 44.84 73.8172 44.072 73.2732 43.096C72.7292 42.104 72.4572 40.992 72.4572 39.76C72.4572 38.384 72.7452 37.176 73.3212 36.136C73.8972 35.096 74.6572 34.304 75.6012 33.76C76.5452 33.2 77.5532 32.92 78.6252 32.92C79.6812 32.92 80.6732 33.208 81.6012 33.784C82.5452 34.36 83.2972 35.136 83.8572 36.112C84.4172 37.088 84.6972 38.144 84.6972 39.28ZM78.6252 35.56C76.7692 35.56 75.6732 36.432 75.3372 38.176H81.6252V38.008C81.5612 37.336 81.2332 36.76 80.6412 36.28C80.0492 35.8 79.3772 35.56 78.6252 35.56ZM93.7711 32.92C94.2511 32.92 94.6511 33.056 94.9711 33.328C95.3071 33.6 95.4751 33.92 95.4751 34.288C95.4751 34.784 95.3471 35.16 95.0911 35.416C94.8351 35.656 94.5311 35.776 94.1791 35.776C93.9391 35.776 93.6671 35.72 93.3631 35.608C93.3151 35.592 93.2031 35.56 93.0271 35.512C92.8671 35.464 92.6911 35.44 92.4991 35.44C92.0831 35.44 91.6831 35.568 91.2991 35.824C90.9151 36.08 90.5951 36.472 90.3391 37C90.0991 37.512 89.9791 38.128 89.9791 38.848V44.536C89.9791 44.952 89.8431 45.304 89.5711 45.592C89.2991 45.864 88.9551 46 88.5391 46C88.1231 46 87.7791 45.864 87.5071 45.592C87.2351 45.304 87.0991 44.952 87.0991 44.536V34.624C87.0991 34.208 87.2351 33.864 87.5071 33.592C87.7791 33.304 88.1231 33.16 88.5391 33.16C88.9551 33.16 89.2991 33.304 89.5711 33.592C89.8431 33.864 89.9791 34.208 89.9791 34.624V34.936C90.3471 34.28 90.8751 33.784 91.5631 33.448C92.2511 33.096 92.9871 32.92 93.7711 32.92ZM107.033 33.16C107.449 33.16 107.793 33.304 108.065 33.592C108.337 33.864 108.473 34.208 108.473 34.624V44.824C108.473 46.904 107.913 48.416 106.793 49.36C105.673 50.32 104.177 50.8 102.305 50.8C101.761 50.8 101.201 50.752 100.625 50.656C100.065 50.576 99.6093 50.464 99.2573 50.32C98.4733 49.984 98.0813 49.52 98.0813 48.928C98.0813 48.816 98.1053 48.688 98.1533 48.544C98.2493 48.192 98.4093 47.92 98.6333 47.728C98.8733 47.552 99.1293 47.464 99.4013 47.464C99.5613 47.464 99.7133 47.488 99.8573 47.536C99.9693 47.584 100.161 47.664 100.433 47.776C100.721 47.888 101.017 47.976 101.321 48.04C101.641 48.12 101.969 48.16 102.305 48.16C103.441 48.16 104.273 47.912 104.801 47.416C105.345 46.936 105.617 46.104 105.617 44.92V44.68C104.785 45.72 103.489 46.24 101.729 46.24C100.897 46.24 100.161 46.048 99.5213 45.664C98.8813 45.264 98.3853 44.72 98.0333 44.032C97.6813 43.328 97.5053 42.528 97.5053 41.632V34.624C97.5053 34.208 97.6413 33.864 97.9133 33.592C98.1853 33.304 98.5293 33.16 98.9453 33.16C99.3613 33.16 99.7053 33.304 99.9773 33.592C100.249 33.864 100.385 34.208 100.385 34.624V40.768C100.385 41.776 100.601 42.504 101.033 42.952C101.481 43.384 102.129 43.6 102.977 43.6C103.809 43.6 104.449 43.36 104.897 42.88C105.361 42.384 105.593 41.68 105.593 40.768V34.624C105.593 34.208 105.729 33.864 106.001 33.592C106.273 33.304 106.617 33.16 107.033 33.16Z" fill="white"/>
</svg>
