<svg width="200" height="200" viewBox="0 0 200 200" fill="none" xmlns="http://www.w3.org/2000/svg">
<rect width="200" height="200" fill="#C4C4C4"/>
<path d="M200 15.1111C179.63 58.6812 111.111 148.993 0 91.8076V-1.52588e-05H200V15.1111Z" fill="#6159E5"/>
<path d="M176 200C150.229 177.283 99.2302 105.479 101.4 0H199.555V200H176Z" fill="#FE654F"/>
<path d="M200 140.09C130.022 111.118 41.9507 162.146 7.11108 200L200 200V140.09Z" fill="#82D4BB"/>
<path d="M0 200H7.11111C7.11111 200 56 146.667 129.333 133.778C202.667 120.889 168.889 73.7778 116 100.444C63.1111 127.111 0 92 0 92V200Z" fill="#F7B538"/>
<path d="M42.256 37.6C42.256 39.184 41.904 40.64 41.2 41.968C40.496 43.28 39.52 44.32 38.272 45.088C37.04 45.856 35.648 46.24 34.096 46.24C32.544 46.24 31.144 45.856 29.896 45.088C28.664 44.32 27.696 43.28 26.992 41.968C26.304 40.64 25.96 39.184 25.96 37.6C25.96 36.016 26.304 34.568 26.992 33.256C27.696 31.928 28.664 30.88 29.896 30.112C31.144 29.344 32.544 28.96 34.096 28.96C35.648 28.96 37.04 29.344 38.272 30.112C39.52 30.88 40.496 31.928 41.2 33.256C41.904 34.568 42.256 36.016 42.256 37.6ZM39.136 37.6C39.136 36.528 38.92 35.56 38.488 34.696C38.056 33.816 37.456 33.12 36.688 32.608C35.92 32.096 35.056 31.84 34.096 31.84C33.12 31.84 32.248 32.096 31.48 32.608C30.728 33.104 30.136 33.792 29.704 34.672C29.288 35.552 29.08 36.528 29.08 37.6C29.08 38.672 29.288 39.648 29.704 40.528C30.136 41.408 30.728 42.104 31.48 42.616C32.248 43.112 33.12 43.36 34.096 43.36C35.056 43.36 35.92 43.104 36.688 42.592C37.456 42.08 38.056 41.392 38.488 40.528C38.92 39.648 39.136 38.672 39.136 37.6ZM50.9629 43.288C51.1869 43.288 51.3869 43.4 51.5629 43.624C51.7549 43.832 51.8509 44.112 51.8509 44.464C51.8509 44.896 51.6109 45.264 51.1309 45.568C50.6669 45.856 50.1389 46 49.5469 46C48.5549 46 47.7149 45.792 47.0269 45.376C46.3549 44.944 46.0189 44.04 46.0189 42.664V36.04H44.9149C44.5309 36.04 44.2109 35.912 43.9549 35.656C43.6989 35.4 43.5709 35.08 43.5709 34.696C43.5709 34.328 43.6989 34.024 43.9549 33.784C44.2109 33.528 44.5309 33.4 44.9149 33.4H46.0189V31.864C46.0189 31.448 46.1549 31.104 46.4269 30.832C46.7149 30.544 47.0669 30.4 47.4829 30.4C47.8829 30.4 48.2189 30.544 48.4909 30.832C48.7629 31.104 48.8989 31.448 48.8989 31.864V33.4H50.6029C50.9869 33.4 51.3069 33.528 51.5629 33.784C51.8189 34.04 51.9469 34.36 51.9469 34.744C51.9469 35.112 51.8189 35.424 51.5629 35.68C51.3069 35.92 50.9869 36.04 50.6029 36.04H48.8989V42.544C48.8989 42.88 48.9869 43.128 49.1629 43.288C49.3389 43.432 49.5789 43.504 49.8829 43.504C50.0109 43.504 50.1869 43.472 50.4109 43.408C50.6029 43.328 50.7869 43.288 50.9629 43.288ZM61.3353 32.92C62.9193 32.92 64.0153 33.408 64.6233 34.384C65.2313 35.344 65.5353 36.68 65.5353 38.392V44.536C65.5353 44.952 65.3993 45.304 65.1273 45.592C64.8553 45.864 64.5113 46 64.0953 46C63.6793 46 63.3353 45.864 63.0633 45.592C62.7913 45.304 62.6553 44.952 62.6553 44.536V38.392C62.6553 37.512 62.4793 36.824 62.1273 36.328C61.7913 35.816 61.1913 35.56 60.3273 35.56C59.4313 35.56 58.7273 35.832 58.2153 36.376C57.7193 36.904 57.4713 37.576 57.4713 38.392V44.536C57.4713 44.952 57.3353 45.304 57.0633 45.592C56.7913 45.864 56.4473 46 56.0312 46C55.6153 46 55.2713 45.864 54.9993 45.592C54.7273 45.304 54.5913 44.952 54.5913 44.536V29.704C54.5913 29.288 54.7273 28.944 54.9993 28.672C55.2713 28.384 55.6153 28.24 56.0312 28.24C56.4473 28.24 56.7913 28.384 57.0633 28.672C57.3353 28.944 57.4713 29.288 57.4713 29.704V35.008C57.9033 34.432 58.4473 33.944 59.1033 33.544C59.7753 33.128 60.5193 32.92 61.3353 32.92ZM80.1738 39.28C80.1578 39.664 80.0058 39.976 79.7178 40.216C79.4298 40.456 79.0938 40.576 78.7098 40.576H70.7898C70.9818 41.52 71.4218 42.264 72.1098 42.808C72.7978 43.336 73.5738 43.6 74.4378 43.6C75.0938 43.6 75.6058 43.544 75.9738 43.432C76.3418 43.304 76.6298 43.176 76.8378 43.048C77.0618 42.904 77.2138 42.808 77.2938 42.76C77.5818 42.616 77.8538 42.544 78.1098 42.544C78.4458 42.544 78.7338 42.664 78.9738 42.904C79.2138 43.144 79.3338 43.424 79.3338 43.744C79.3338 44.176 79.1098 44.568 78.6618 44.92C78.2138 45.288 77.6138 45.6 76.8618 45.856C76.1098 46.112 75.3498 46.24 74.5818 46.24C73.2378 46.24 72.0618 45.96 71.0538 45.4C70.0618 44.84 69.2938 44.072 68.7498 43.096C68.2058 42.104 67.9338 40.992 67.9338 39.76C67.9338 38.384 68.2218 37.176 68.7978 36.136C69.3738 35.096 70.1338 34.304 71.0778 33.76C72.0218 33.2 73.0298 32.92 74.1018 32.92C75.1578 32.92 76.1498 33.208 77.0778 33.784C78.0218 34.36 78.7738 35.136 79.3338 36.112C79.8938 37.088 80.1738 38.144 80.1738 39.28ZM74.1018 35.56C72.2458 35.56 71.1498 36.432 70.8138 38.176H77.1018V38.008C77.0378 37.336 76.7098 36.76 76.1178 36.28C75.5258 35.8 74.8538 35.56 74.1018 35.56ZM89.2476 32.92C89.7276 32.92 90.1276 33.056 90.4476 33.328C90.7836 33.6 90.9516 33.92 90.9516 34.288C90.9516 34.784 90.8236 35.16 90.5676 35.416C90.3116 35.656 90.0076 35.776 89.6556 35.776C89.4156 35.776 89.1436 35.72 88.8396 35.608C88.7916 35.592 88.6796 35.56 88.5036 35.512C88.3436 35.464 88.1676 35.44 87.9756 35.44C87.5596 35.44 87.1596 35.568 86.7756 35.824C86.3916 36.08 86.0716 36.472 85.8156 37C85.5756 37.512 85.4556 38.128 85.4556 38.848V44.536C85.4556 44.952 85.3196 45.304 85.0476 45.592C84.7756 45.864 84.4316 46 84.0156 46C83.5996 46 83.2556 45.864 82.9836 45.592C82.7116 45.304 82.5756 44.952 82.5756 44.536V34.624C82.5756 34.208 82.7116 33.864 82.9836 33.592C83.2556 33.304 83.5996 33.16 84.0156 33.16C84.4316 33.16 84.7756 33.304 85.0476 33.592C85.3196 33.864 85.4556 34.208 85.4556 34.624V34.936C85.8236 34.28 86.3516 33.784 87.0396 33.448C87.7276 33.096 88.4636 32.92 89.2476 32.92ZM92.2379 44.008C92.0939 43.816 92.0219 43.576 92.0219 43.288C92.0219 42.872 92.2299 42.52 92.6459 42.232C92.8699 42.088 93.1019 42.016 93.3419 42.016C93.6779 42.016 93.9979 42.168 94.3019 42.472C94.7819 42.968 95.2779 43.336 95.7899 43.576C96.3179 43.816 96.9499 43.936 97.6859 43.936C98.9339 43.888 99.5579 43.416 99.5579 42.52C99.5579 42.056 99.3419 41.704 98.9099 41.464C98.4939 41.224 97.8379 40.984 96.9419 40.744C96.0139 40.488 95.2539 40.232 94.6619 39.976C94.0859 39.72 93.5819 39.336 93.1499 38.824C92.7339 38.296 92.5259 37.592 92.5259 36.712C92.5259 35.944 92.7419 35.28 93.1739 34.72C93.6219 34.144 94.1979 33.704 94.9019 33.4C95.6219 33.08 96.3819 32.92 97.1819 32.92C97.9979 32.92 98.8139 33.072 99.6299 33.376C100.446 33.68 101.086 34.128 101.55 34.72C101.758 34.976 101.862 35.264 101.862 35.584C101.862 35.952 101.71 36.256 101.406 36.496C101.182 36.672 100.926 36.76 100.638 36.76C100.286 36.76 99.9979 36.648 99.7739 36.424C99.4859 36.072 99.1099 35.792 98.6459 35.584C98.1979 35.376 97.6859 35.272 97.1099 35.272C95.8939 35.272 95.2859 35.712 95.2859 36.592C95.2859 36.944 95.3979 37.232 95.6219 37.456C95.8459 37.664 96.1259 37.832 96.4619 37.96C96.8139 38.072 97.3019 38.216 97.9259 38.392C98.7899 38.632 99.5099 38.88 100.086 39.136C100.662 39.392 101.15 39.784 101.55 40.312C101.95 40.84 102.15 41.536 102.15 42.4C102.15 43.184 101.918 43.872 101.454 44.464C100.99 45.04 100.39 45.48 99.6539 45.784C98.9339 46.088 98.1899 46.24 97.4219 46.24C96.3659 46.24 95.3819 46.064 94.4699 45.712C93.5579 45.36 92.8139 44.792 92.2379 44.008Z" fill="white"/>
</svg>
