<svg width="200" height="200" viewBox="0 0 200 200" fill="none" xmlns="http://www.w3.org/2000/svg">
<rect width="200" height="200" fill="#3A3592"/>
<path d="M52.2768 200C-5.97472 82.5 134.925 96.5 74.6815 0L0 0L0 200L52.2768 200Z" fill="#F7B538"/>
<path d="M200 147.723C82.5 205.975 96.5 65.0753 0 125.319V200H200V147.723Z" fill="#6159E5"/>
<path d="M0 52.2768C117.5 -5.97472 103.5 134.925 200 74.6815V0L0 0V52.2768Z" fill="#82D4BB"/>
<path d="M147.723 0C205.975 117.5 65.0753 103.5 125.319 200H200V0H147.723Z" fill="#FE654F"/>
<path d="M33.736 29.2C34.552 29.2 35.328 29.448 36.064 29.944C36.8 30.424 37.392 31.08 37.84 31.912C38.288 32.728 38.512 33.624 38.512 34.6C38.512 35.56 38.288 36.456 37.84 37.288C37.392 38.12 36.8 38.784 36.064 39.28C35.328 39.76 34.552 40 33.736 40H29.56V44.536C29.56 44.968 29.432 45.32 29.176 45.592C28.92 45.864 28.584 46 28.168 46C27.768 46 27.44 45.864 27.184 45.592C26.928 45.304 26.8 44.952 26.8 44.536V30.664C26.8 30.248 26.936 29.904 27.208 29.632C27.496 29.344 27.848 29.2 28.264 29.2H33.736ZM33.736 37.264C34.04 37.264 34.336 37.136 34.624 36.88C34.928 36.624 35.168 36.296 35.344 35.896C35.536 35.48 35.632 35.048 35.632 34.6C35.632 34.152 35.536 33.728 35.344 33.328C35.168 32.912 34.928 32.584 34.624 32.344C34.336 32.088 34.04 31.96 33.736 31.96H29.56V37.264H33.736ZM53.1226 39.592C53.1226 40.872 52.8346 42.024 52.2586 43.048C51.6826 44.056 50.8906 44.84 49.8826 45.4C48.8906 45.96 47.7946 46.24 46.5946 46.24C45.3786 46.24 44.2746 45.96 43.2826 45.4C42.2906 44.84 41.5066 44.056 40.9306 43.048C40.3546 42.024 40.0666 40.872 40.0666 39.592C40.0666 38.312 40.3546 37.168 40.9306 36.16C41.5066 35.136 42.2906 34.344 43.2826 33.784C44.2746 33.208 45.3786 32.92 46.5946 32.92C47.7946 32.92 48.8906 33.208 49.8826 33.784C50.8906 34.344 51.6826 35.136 52.2586 36.16C52.8346 37.168 53.1226 38.312 53.1226 39.592ZM50.2426 39.592C50.2426 38.808 50.0746 38.112 49.7386 37.504C49.4186 36.88 48.9786 36.4 48.4186 36.064C47.8746 35.728 47.2666 35.56 46.5946 35.56C45.9226 35.56 45.3066 35.728 44.7466 36.064C44.2026 36.4 43.7626 36.88 43.4266 37.504C43.1066 38.112 42.9466 38.808 42.9466 39.592C42.9466 40.376 43.1066 41.072 43.4266 41.68C43.7626 42.288 44.2026 42.76 44.7466 43.096C45.3066 43.432 45.9226 43.6 46.5946 43.6C47.2666 43.6 47.8746 43.432 48.4186 43.096C48.9786 42.76 49.4186 42.288 49.7386 41.68C50.0746 41.072 50.2426 40.376 50.2426 39.592ZM67.0488 39.28C67.0328 39.664 66.8808 39.976 66.5928 40.216C66.3048 40.456 65.9688 40.576 65.5848 40.576H57.6648C57.8568 41.52 58.2968 42.264 58.9848 42.808C59.6728 43.336 60.4488 43.6 61.3128 43.6C61.9688 43.6 62.4808 43.544 62.8488 43.432C63.2168 43.304 63.5048 43.176 63.7128 43.048C63.9368 42.904 64.0888 42.808 64.1688 42.76C64.4568 42.616 64.7288 42.544 64.9848 42.544C65.3208 42.544 65.6088 42.664 65.8488 42.904C66.0888 43.144 66.2088 43.424 66.2088 43.744C66.2088 44.176 65.9848 44.568 65.5368 44.92C65.0888 45.288 64.4888 45.6 63.7368 45.856C62.9848 46.112 62.2248 46.24 61.4568 46.24C60.1128 46.24 58.9368 45.96 57.9288 45.4C56.9368 44.84 56.1688 44.072 55.6248 43.096C55.0808 42.104 54.8088 40.992 54.8088 39.76C54.8088 38.384 55.0968 37.176 55.6728 36.136C56.2488 35.096 57.0088 34.304 57.9528 33.76C58.8968 33.2 59.9048 32.92 60.9768 32.92C62.0328 32.92 63.0248 33.208 63.9528 33.784C64.8968 34.36 65.6488 35.136 66.2088 36.112C66.7688 37.088 67.0488 38.144 67.0488 39.28ZM60.9768 35.56C59.1208 35.56 58.0248 36.432 57.6888 38.176H63.9768V38.008C63.9128 37.336 63.5848 36.76 62.9928 36.28C62.4008 35.8 61.7288 35.56 60.9768 35.56ZM75.6426 43.288C75.8666 43.288 76.0666 43.4 76.2426 43.624C76.4346 43.832 76.5306 44.112 76.5306 44.464C76.5306 44.896 76.2906 45.264 75.8106 45.568C75.3466 45.856 74.8186 46 74.2266 46C73.2346 46 72.3946 45.792 71.7066 45.376C71.0346 44.944 70.6986 44.04 70.6986 42.664V36.04H69.5946C69.2106 36.04 68.8906 35.912 68.6346 35.656C68.3786 35.4 68.2506 35.08 68.2506 34.696C68.2506 34.328 68.3786 34.024 68.6346 33.784C68.8906 33.528 69.2106 33.4 69.5946 33.4H70.6986V31.864C70.6986 31.448 70.8346 31.104 71.1066 30.832C71.3946 30.544 71.7466 30.4 72.1626 30.4C72.5626 30.4 72.8986 30.544 73.1706 30.832C73.4426 31.104 73.5786 31.448 73.5786 31.864V33.4H75.2826C75.6666 33.4 75.9866 33.528 76.2426 33.784C76.4986 34.04 76.6266 34.36 76.6266 34.744C76.6266 35.112 76.4986 35.424 76.2426 35.68C75.9866 35.92 75.6666 36.04 75.2826 36.04H73.5786V42.544C73.5786 42.88 73.6666 43.128 73.8426 43.288C74.0186 43.432 74.2586 43.504 74.5626 43.504C74.6906 43.504 74.8666 43.472 75.0906 43.408C75.2826 43.328 75.4666 43.288 75.6426 43.288ZM85.9429 32.92C86.4229 32.92 86.8229 33.056 87.1429 33.328C87.4789 33.6 87.6469 33.92 87.6469 34.288C87.6469 34.784 87.5189 35.16 87.2629 35.416C87.0069 35.656 86.7029 35.776 86.3509 35.776C86.1109 35.776 85.8389 35.72 85.5349 35.608C85.4869 35.592 85.3749 35.56 85.1989 35.512C85.0389 35.464 84.8629 35.44 84.6709 35.44C84.2549 35.44 83.8549 35.568 83.4709 35.824C83.0869 36.08 82.7669 36.472 82.5109 37C82.2709 37.512 82.1509 38.128 82.1509 38.848V44.536C82.1509 44.952 82.0149 45.304 81.7429 45.592C81.4709 45.864 81.1269 46 80.7109 46C80.2949 46 79.9509 45.864 79.6789 45.592C79.4069 45.304 79.2709 44.952 79.2709 44.536V34.624C79.2709 34.208 79.4069 33.864 79.6789 33.592C79.9509 33.304 80.2949 33.16 80.7109 33.16C81.1269 33.16 81.4709 33.304 81.7429 33.592C82.0149 33.864 82.1509 34.208 82.1509 34.624V34.936C82.5189 34.28 83.0469 33.784 83.7349 33.448C84.4229 33.096 85.1589 32.92 85.9429 32.92ZM99.2052 33.16C99.6212 33.16 99.9652 33.304 100.237 33.592C100.509 33.864 100.645 34.208 100.645 34.624V44.824C100.645 46.904 100.085 48.416 98.9652 49.36C97.8452 50.32 96.3492 50.8 94.4772 50.8C93.9332 50.8 93.3732 50.752 92.7972 50.656C92.2372 50.576 91.7812 50.464 91.4292 50.32C90.6452 49.984 90.2532 49.52 90.2532 48.928C90.2532 48.816 90.2772 48.688 90.3252 48.544C90.4212 48.192 90.5812 47.92 90.8052 47.728C91.0452 47.552 91.3012 47.464 91.5732 47.464C91.7332 47.464 91.8852 47.488 92.0292 47.536C92.1412 47.584 92.3332 47.664 92.6052 47.776C92.8932 47.888 93.1892 47.976 93.4932 48.04C93.8132 48.12 94.1412 48.16 94.4772 48.16C95.6132 48.16 96.4452 47.912 96.9732 47.416C97.5172 46.936 97.7892 46.104 97.7892 44.92V44.68C96.9572 45.72 95.6612 46.24 93.9012 46.24C93.0692 46.24 92.3332 46.048 91.6932 45.664C91.0532 45.264 90.5572 44.72 90.2052 44.032C89.8532 43.328 89.6772 42.528 89.6772 41.632V34.624C89.6772 34.208 89.8132 33.864 90.0852 33.592C90.3572 33.304 90.7012 33.16 91.1172 33.16C91.5332 33.16 91.8772 33.304 92.1492 33.592C92.4212 33.864 92.5572 34.208 92.5572 34.624V40.768C92.5572 41.776 92.7732 42.504 93.2052 42.952C93.6532 43.384 94.3012 43.6 95.1492 43.6C95.9812 43.6 96.6212 43.36 97.0692 42.88C97.5332 42.384 97.7652 41.68 97.7652 40.768V34.624C97.7652 34.208 97.9012 33.864 98.1732 33.592C98.4452 33.304 98.7892 33.16 99.2052 33.16Z" fill="white"/>
</svg>
