<svg width="150" height="260" viewBox="0 0 150 260" fill="none" xmlns="http://www.w3.org/2000/svg">
<path d="M125 50C125 56.5661 123.707 63.0679 121.194 69.1342C118.681 75.2005 114.998 80.7124 110.355 85.3553C105.712 89.9983 100.2 93.6812 94.1342 96.194C88.0679 98.7067 81.5661 100 75 100L75 50H125Z" fill="#F7B538"/>
<path d="M25 50C25 56.5661 26.2933 63.0679 28.806 69.1342C31.3188 75.2004 35.0017 80.7124 39.6447 85.3553C44.2876 89.9983 49.7995 93.6812 55.8658 96.194C61.9321 98.7067 68.4339 100 75 100L75 50L25 50Z" fill="#FE654F"/>
<path fill-rule="evenodd" clip-rule="evenodd" d="M50 75C63.8071 75 75 63.8071 75 50H25C25 63.8071 36.1929 75 50 75Z" fill="#82D4BB"/>
<path d="M25 50C25 36.7392 30.2678 24.0215 39.6447 14.6447C49.0215 5.26784 61.7392 -1.58134e-07 75 0L75 50L25 50Z" fill="#82D4BB"/>
<path fill-rule="evenodd" clip-rule="evenodd" d="M75 50V0C61.1929 0 50 11.1929 50 25C50 38.8071 61.1929 50 75 50Z" fill="#6159E5"/>
<path d="M125 50C125 43.4339 123.707 36.9321 121.194 30.8658C118.681 24.7995 114.998 19.2876 110.355 14.6447C105.712 10.0017 100.2 6.31876 94.1342 3.80602C88.0679 1.29329 81.5661 -2.87013e-07 75 0L75 50H125Z" fill="#6159E5"/>
<path fill-rule="evenodd" clip-rule="evenodd" d="M125 50C125 36.1929 113.807 25 100 25C86.1929 25 75 36.1929 75 50H125Z" fill="#F7B538"/>
<path fill-rule="evenodd" clip-rule="evenodd" d="M75 100C88.8071 100 100 88.8071 100 75C100 61.1929 88.8071 50 75 50V100Z" fill="#FE654F"/>
<path d="M0 185C1.73895e-06 165.109 7.90176 146.032 21.967 131.967C36.0322 117.902 55.1087 110 75 110C94.8912 110 113.968 117.902 128.033 131.967C142.098 146.032 150 165.109 150 185L75 185L0 185Z" fill="#828282"/>
</svg>
