<svg width="200" height="200" viewBox="0 0 200 200" fill="none" xmlns="http://www.w3.org/2000/svg">
<rect width="200" height="200" fill="#C4C4C4"/>
<path d="M200 101.95C179.63 142.702 67.5 -10.7562 0 85.8694V0H200V101.95Z" fill="#FE654F"/>
<path d="M171.222 200C139.737 177.283 77.4307 105.479 80.082 0H200V200H171.222Z" fill="#82D4BB"/>
<path d="M0 200H7.05757C7.05757 200 38.6374 199.618 111.419 188.515C184.2 177.411 248.092 202.509 149.549 101.551C51.005 0.593075 0 82.0493 0 82.0493V200Z" fill="#6159E5"/>
<path d="M200 140.09C130.022 111.118 41.9508 162.146 7.11121 200L200 200V140.09Z" fill="#F7B538"/>
<path d="M39.976 43.648C40.184 43.776 40.344 43.944 40.456 44.152C40.584 44.36 40.648 44.576 40.648 44.8C40.648 45.088 40.552 45.352 40.36 45.592C40.12 45.88 39.752 46.024 39.256 46.024C38.872 46.024 38.52 45.936 38.2 45.76C37.048 45.104 36.472 43.768 36.472 41.752C36.472 41.176 36.28 40.72 35.896 40.384C35.528 40.048 34.992 39.88 34.288 39.88H29.8V44.536C29.8 44.968 29.68 45.32 29.44 45.592C29.216 45.864 28.912 46 28.528 46C28.064 46 27.656 45.864 27.304 45.592C26.968 45.304 26.8 44.952 26.8 44.536V30.664C26.8 30.248 26.936 29.904 27.208 29.632C27.496 29.344 27.848 29.2 28.264 29.2H35.176C36.008 29.2 36.792 29.424 37.528 29.872C38.264 30.32 38.848 30.936 39.28 31.72C39.728 32.504 39.952 33.384 39.952 34.36C39.952 35.16 39.736 35.944 39.304 36.712C38.872 37.464 38.312 38.064 37.624 38.512C38.632 39.216 39.184 40.16 39.28 41.344C39.328 41.6 39.352 41.848 39.352 42.088C39.416 42.584 39.48 42.944 39.544 43.168C39.608 43.376 39.752 43.536 39.976 43.648ZM35.056 37.408C35.344 37.408 35.624 37.272 35.896 37C36.168 36.728 36.392 36.368 36.568 35.92C36.744 35.456 36.832 34.96 36.832 34.432C36.832 33.984 36.744 33.576 36.568 33.208C36.392 32.824 36.168 32.52 35.896 32.296C35.624 32.072 35.344 31.96 35.056 31.96H29.8V37.408H35.056ZM55.2554 39.592C55.2554 40.872 54.9674 42.024 54.3914 43.048C53.8154 44.056 53.0234 44.84 52.0154 45.4C51.0234 45.96 49.9274 46.24 48.7274 46.24C47.5114 46.24 46.4074 45.96 45.4154 45.4C44.4234 44.84 43.6394 44.056 43.0634 43.048C42.4874 42.024 42.1994 40.872 42.1994 39.592C42.1994 38.312 42.4874 37.168 43.0634 36.16C43.6394 35.136 44.4234 34.344 45.4154 33.784C46.4074 33.208 47.5114 32.92 48.7274 32.92C49.9274 32.92 51.0234 33.208 52.0154 33.784C53.0234 34.344 53.8154 35.136 54.3914 36.16C54.9674 37.168 55.2554 38.312 55.2554 39.592ZM52.3754 39.592C52.3754 38.808 52.2074 38.112 51.8714 37.504C51.5514 36.88 51.1114 36.4 50.5514 36.064C50.0074 35.728 49.3994 35.56 48.7274 35.56C48.0554 35.56 47.4394 35.728 46.8794 36.064C46.3354 36.4 45.8954 36.88 45.5594 37.504C45.2394 38.112 45.0794 38.808 45.0794 39.592C45.0794 40.376 45.2394 41.072 45.5594 41.68C45.8954 42.288 46.3354 42.76 46.8794 43.096C47.4394 43.432 48.0554 43.6 48.7274 43.6C49.3994 43.6 50.0074 43.432 50.5514 43.096C51.1114 42.76 51.5514 42.288 51.8714 41.68C52.2074 41.072 52.3754 40.376 52.3754 39.592ZM72.4696 32.92C74.0536 32.92 75.1496 33.408 75.7576 34.384C76.3656 35.344 76.6696 36.68 76.6696 38.392V44.536C76.6696 44.952 76.5336 45.304 76.2616 45.592C75.9896 45.864 75.6456 46 75.2296 46C74.8136 46 74.4696 45.864 74.1976 45.592C73.9256 45.304 73.7896 44.952 73.7896 44.536V38.392C73.7896 37.512 73.6136 36.824 73.2616 36.328C72.9256 35.816 72.3256 35.56 71.4616 35.56C70.5656 35.56 69.8616 35.832 69.3496 36.376C68.8536 36.904 68.6056 37.576 68.6056 38.392V44.536C68.6056 44.952 68.4696 45.304 68.1976 45.592C67.9256 45.864 67.5816 46 67.1656 46C66.7496 46 66.4056 45.864 66.1336 45.592C65.8616 45.304 65.7256 44.952 65.7256 44.536V38.392C65.7256 37.512 65.5496 36.824 65.1976 36.328C64.8616 35.816 64.2616 35.56 63.3976 35.56C62.5016 35.56 61.7976 35.832 61.2856 36.376C60.7896 36.904 60.5416 37.576 60.5416 38.392V44.536C60.5416 44.952 60.4056 45.304 60.1336 45.592C59.8616 45.864 59.5176 46 59.1016 46C58.6856 46 58.3416 45.864 58.0696 45.592C57.7976 45.304 57.6616 44.952 57.6616 44.536V34.624C57.6616 34.208 57.7976 33.864 58.0696 33.592C58.3416 33.304 58.6856 33.16 59.1016 33.16C59.5176 33.16 59.8616 33.304 60.1336 33.592C60.4056 33.864 60.5416 34.208 60.5416 34.624V35.008C60.9736 34.432 61.5176 33.944 62.1736 33.544C62.8456 33.128 63.5896 32.92 64.4056 32.92C66.4216 32.92 67.7096 33.8 68.2696 35.56C68.6376 34.888 69.1896 34.28 69.9256 33.736C70.6776 33.192 71.5256 32.92 72.4696 32.92ZM90.1786 32.92C90.5946 32.92 90.9386 33.056 91.2106 33.328C91.4826 33.6 91.6186 33.952 91.6186 34.384V44.536C91.6186 44.952 91.4826 45.304 91.2106 45.592C90.9386 45.864 90.5946 46 90.1786 46C89.7626 46 89.4186 45.864 89.1466 45.592C88.8906 45.32 88.7546 44.976 88.7386 44.56C88.3386 45.024 87.7946 45.424 87.1066 45.76C86.4346 46.08 85.7226 46.24 84.9706 46.24C83.8666 46.24 82.8666 45.96 81.9706 45.4C81.0746 44.824 80.3626 44.032 79.8346 43.024C79.3226 42.016 79.0666 40.872 79.0666 39.592C79.0666 38.312 79.3226 37.168 79.8346 36.16C80.3466 35.136 81.0426 34.344 81.9226 33.784C82.8186 33.208 83.8026 32.92 84.8746 32.92C85.6426 32.92 86.3626 33.064 87.0346 33.352C87.7066 33.624 88.2746 33.976 88.7386 34.408V34.384C88.7386 33.968 88.8746 33.624 89.1466 33.352C89.4186 33.064 89.7626 32.92 90.1786 32.92ZM85.3306 43.6C86.3706 43.6 87.2186 43.224 87.8746 42.472C88.5306 41.704 88.8586 40.744 88.8586 39.592C88.8586 38.44 88.5306 37.48 87.8746 36.712C87.2186 35.944 86.3706 35.56 85.3306 35.56C84.3066 35.56 83.4666 35.944 82.8106 36.712C82.1546 37.48 81.8266 38.44 81.8266 39.592C81.8266 40.744 82.1466 41.704 82.7866 42.472C83.4426 43.224 84.2906 43.6 85.3306 43.6ZM101.604 32.92C103.236 32.92 104.364 33.408 104.988 34.384C105.612 35.344 105.924 36.68 105.924 38.392V44.536C105.924 44.952 105.788 45.304 105.516 45.592C105.244 45.864 104.9 46 104.484 46C104.068 46 103.724 45.864 103.452 45.592C103.18 45.304 103.044 44.952 103.044 44.536V38.392C103.044 37.512 102.86 36.824 102.492 36.328C102.124 35.816 101.492 35.56 100.596 35.56C99.6677 35.56 98.9397 35.832 98.4117 36.376C97.8837 36.904 97.6197 37.576 97.6197 38.392V44.536C97.6197 44.952 97.4837 45.304 97.2117 45.592C96.9397 45.864 96.5957 46 96.1797 46C95.7637 46 95.4197 45.864 95.1477 45.592C94.8757 45.304 94.7397 44.952 94.7397 44.536V34.624C94.7397 34.208 94.8757 33.864 95.1477 33.592C95.4197 33.304 95.7637 33.16 96.1797 33.16C96.5957 33.16 96.9397 33.304 97.2117 33.592C97.4837 33.864 97.6197 34.208 97.6197 34.624V35.032C98.0517 34.456 98.6117 33.96 99.2997 33.544C100.004 33.128 100.772 32.92 101.604 32.92ZM115.229 43.288C115.453 43.288 115.653 43.4 115.829 43.624C116.021 43.832 116.117 44.112 116.117 44.464C116.117 44.896 115.877 45.264 115.397 45.568C114.933 45.856 114.405 46 113.813 46C112.821 46 111.981 45.792 111.293 45.376C110.621 44.944 110.285 44.04 110.285 42.664V36.04H109.181C108.797 36.04 108.477 35.912 108.221 35.656C107.965 35.4 107.837 35.08 107.837 34.696C107.837 34.328 107.965 34.024 108.221 33.784C108.477 33.528 108.797 33.4 109.181 33.4H110.285V31.864C110.285 31.448 110.421 31.104 110.693 30.832C110.981 30.544 111.333 30.4 111.749 30.4C112.149 30.4 112.485 30.544 112.757 30.832C113.029 31.104 113.165 31.448 113.165 31.864V33.4H114.869C115.253 33.4 115.573 33.528 115.829 33.784C116.085 34.04 116.213 34.36 116.213 34.744C116.213 35.112 116.085 35.424 115.829 35.68C115.573 35.92 115.253 36.04 114.869 36.04H113.165V42.544C113.165 42.88 113.253 43.128 113.429 43.288C113.605 43.432 113.845 43.504 114.149 43.504C114.277 43.504 114.453 43.472 114.677 43.408C114.869 43.328 115.053 43.288 115.229 43.288ZM121.569 44.536C121.569 44.952 121.433 45.304 121.161 45.592C120.889 45.864 120.545 46 120.129 46C119.713 46 119.369 45.864 119.097 45.592C118.825 45.304 118.689 44.952 118.689 44.536V34.624C118.689 34.208 118.825 33.864 119.097 33.592C119.369 33.304 119.713 33.16 120.129 33.16C120.545 33.16 120.889 33.304 121.161 33.592C121.433 33.864 121.569 34.208 121.569 34.624V44.536ZM120.105 31.6C119.561 31.6 119.177 31.512 118.953 31.336C118.729 31.16 118.617 30.848 118.617 30.4V29.944C118.617 29.496 118.737 29.184 118.977 29.008C119.217 28.832 119.601 28.744 120.129 28.744C120.689 28.744 121.081 28.832 121.305 29.008C121.529 29.184 121.641 29.496 121.641 29.944V30.4C121.641 30.864 121.521 31.184 121.281 31.36C121.057 31.52 120.665 31.6 120.105 31.6ZM130.121 32.92C131.481 32.92 132.577 33.136 133.409 33.568C134.241 33.984 134.657 34.544 134.657 35.248C134.657 35.6 134.553 35.912 134.345 36.184C134.137 36.44 133.865 36.568 133.529 36.568C133.273 36.568 133.065 36.536 132.905 36.472C132.745 36.392 132.585 36.296 132.425 36.184C132.281 36.056 132.137 35.952 131.993 35.872C131.833 35.792 131.593 35.72 131.273 35.656C130.969 35.592 130.721 35.56 130.529 35.56C129.329 35.56 128.385 35.936 127.697 36.688C127.025 37.424 126.689 38.392 126.689 39.592C126.689 40.744 127.033 41.704 127.721 42.472C128.409 43.224 129.289 43.6 130.361 43.6C131.145 43.6 131.729 43.504 132.113 43.312C132.209 43.264 132.337 43.184 132.497 43.072C132.673 42.944 132.833 42.848 132.977 42.784C133.121 42.72 133.297 42.688 133.505 42.688C133.905 42.688 134.217 42.816 134.441 43.072C134.681 43.328 134.801 43.656 134.801 44.056C134.801 44.44 134.577 44.8 134.129 45.136C133.681 45.472 133.089 45.744 132.353 45.952C131.617 46.144 130.833 46.24 130.001 46.24C128.769 46.24 127.681 45.952 126.737 45.376C125.809 44.8 125.089 44.008 124.577 43C124.065 41.976 123.809 40.84 123.809 39.592C123.809 38.296 124.073 37.144 124.601 36.136C125.145 35.128 125.897 34.344 126.857 33.784C127.817 33.208 128.905 32.92 130.121 32.92Z" fill="white"/>
</svg>
