<svg width="200" height="200" viewBox="0 0 200 200" fill="none" xmlns="http://www.w3.org/2000/svg">
<rect width="200" height="200" fill="#C4C4C4"/>
<path d="M200 101.95C179.63 142.702 67.5 -10.7562 0 85.8694V0H200V101.95Z" fill="#FE654F"/>
<path d="M171.222 200C139.737 177.283 77.4307 105.479 80.082 0H200V200H171.222Z" fill="#82D4BB"/>
<path d="M0 200H7.05757C7.05757 200 38.6374 199.618 111.419 188.515C184.2 177.411 248.092 202.509 149.549 101.551C51.005 0.593075 0 82.0493 0 82.0493V200Z" fill="#6159E5"/>
<path d="M200 140.09C130.022 111.118 41.9507 162.146 7.11108 200L200 200V140.09Z" fill="#F7B538"/>
<path d="M32.2 46.24C31.048 46.24 30.024 46.096 29.128 45.808C28.232 45.52 27.392 45.032 26.608 44.344C26.176 43.96 25.96 43.536 25.96 43.072C25.96 42.704 26.096 42.384 26.368 42.112C26.64 41.824 26.968 41.68 27.352 41.68C27.656 41.68 27.928 41.776 28.168 41.968C28.808 42.496 29.432 42.88 30.04 43.12C30.648 43.36 31.368 43.48 32.2 43.48C33.096 43.48 33.864 43.28 34.504 42.88C35.16 42.48 35.488 41.984 35.488 41.392C35.488 40.672 35.168 40.112 34.528 39.712C33.888 39.296 32.872 38.984 31.48 38.776C27.976 38.264 26.224 36.632 26.224 33.88C26.224 32.872 26.488 32 27.016 31.264C27.544 30.512 28.264 29.944 29.176 29.56C30.088 29.16 31.104 28.96 32.224 28.96C33.232 28.96 34.176 29.112 35.056 29.416C35.952 29.72 36.696 30.12 37.288 30.616C37.752 30.984 37.984 31.408 37.984 31.888C37.984 32.256 37.848 32.584 37.576 32.872C37.304 33.144 36.984 33.28 36.616 33.28C36.376 33.28 36.16 33.208 35.968 33.064C35.552 32.728 34.968 32.424 34.216 32.152C33.48 31.864 32.816 31.72 32.224 31.72C31.216 31.72 30.432 31.912 29.872 32.296C29.328 32.664 29.056 33.152 29.056 33.76C29.056 34.448 29.336 34.968 29.896 35.32C30.472 35.672 31.368 35.96 32.584 36.184C33.96 36.424 35.056 36.736 35.872 37.12C36.704 37.488 37.328 38 37.744 38.656C38.16 39.296 38.368 40.152 38.368 41.224C38.368 42.232 38.08 43.12 37.504 43.888C36.944 44.64 36.192 45.224 35.248 45.64C34.304 46.04 33.288 46.24 32.2 46.24ZM46.4723 32.92C47.8323 32.92 48.9283 33.136 49.7603 33.568C50.5923 33.984 51.0083 34.544 51.0083 35.248C51.0083 35.6 50.9043 35.912 50.6963 36.184C50.4883 36.44 50.2163 36.568 49.8803 36.568C49.6243 36.568 49.4163 36.536 49.2563 36.472C49.0963 36.392 48.9363 36.296 48.7763 36.184C48.6323 36.056 48.4883 35.952 48.3443 35.872C48.1843 35.792 47.9443 35.72 47.6243 35.656C47.3203 35.592 47.0723 35.56 46.8803 35.56C45.6803 35.56 44.7363 35.936 44.0483 36.688C43.3763 37.424 43.0403 38.392 43.0403 39.592C43.0403 40.744 43.3843 41.704 44.0723 42.472C44.7603 43.224 45.6403 43.6 46.7123 43.6C47.4963 43.6 48.0803 43.504 48.4643 43.312C48.5603 43.264 48.6883 43.184 48.8483 43.072C49.0243 42.944 49.1843 42.848 49.3283 42.784C49.4723 42.72 49.6483 42.688 49.8563 42.688C50.2563 42.688 50.5683 42.816 50.7923 43.072C51.0323 43.328 51.1523 43.656 51.1523 44.056C51.1523 44.44 50.9283 44.8 50.4803 45.136C50.0323 45.472 49.4403 45.744 48.7043 45.952C47.9683 46.144 47.1843 46.24 46.3523 46.24C45.1203 46.24 44.0323 45.952 43.0883 45.376C42.1603 44.8 41.4403 44.008 40.9283 43C40.4163 41.976 40.1603 40.84 40.1603 39.592C40.1603 38.296 40.4243 37.144 40.9523 36.136C41.4963 35.128 42.2483 34.344 43.2083 33.784C44.1683 33.208 45.2563 32.92 46.4723 32.92ZM55.9439 44.536C55.9439 44.952 55.8079 45.304 55.5359 45.592C55.2639 45.864 54.9199 46 54.5039 46C54.0879 46 53.7439 45.864 53.4719 45.592C53.1999 45.304 53.0639 44.952 53.0639 44.536V34.624C53.0639 34.208 53.1999 33.864 53.4719 33.592C53.7439 33.304 54.0879 33.16 54.5039 33.16C54.9199 33.16 55.2639 33.304 55.5359 33.592C55.8079 33.864 55.9439 34.208 55.9439 34.624V44.536ZM54.4799 31.6C53.9359 31.6 53.5519 31.512 53.3279 31.336C53.1039 31.16 52.9919 30.848 52.9919 30.4V29.944C52.9919 29.496 53.1119 29.184 53.3519 29.008C53.5919 28.832 53.9759 28.744 54.5039 28.744C55.0639 28.744 55.4559 28.832 55.6799 29.008C55.9039 29.184 56.0159 29.496 56.0159 29.944V30.4C56.0159 30.864 55.8959 31.184 55.6559 31.36C55.4319 31.52 55.0399 31.6 54.4799 31.6ZM60.0078 40.072C59.5918 40.072 59.2398 39.936 58.9518 39.664C58.6798 39.392 58.5438 39.048 58.5438 38.632C58.5438 38.232 58.6798 37.896 58.9518 37.624C59.2398 37.352 59.5918 37.216 60.0078 37.216H64.1838C64.5998 37.216 64.9438 37.36 65.2158 37.648C65.5038 37.92 65.6478 38.264 65.6478 38.68C65.6478 39.08 65.5038 39.416 65.2158 39.688C64.9438 39.944 64.5998 40.072 64.1838 40.072H60.0078ZM71.6594 31.96V36.184H76.8434C77.2594 36.184 77.6034 36.32 77.8754 36.592C78.1634 36.848 78.3074 37.184 78.3074 37.6C78.3074 37.952 78.1634 38.264 77.8754 38.536C77.6034 38.808 77.2594 38.944 76.8434 38.944H71.6594V44.536C71.6594 44.952 71.5074 45.304 71.2034 45.592C70.9154 45.864 70.5714 46 70.1714 46C69.7234 46 69.3554 45.864 69.0674 45.592C68.7954 45.32 68.6594 44.968 68.6594 44.536V30.664C68.6594 30.248 68.7954 29.904 69.0674 29.632C69.3554 29.344 69.7074 29.2 70.1234 29.2H77.9234C78.3394 29.2 78.6834 29.336 78.9554 29.608C79.2434 29.864 79.3874 30.2 79.3874 30.616C79.3874 30.968 79.2434 31.28 78.9554 31.552C78.6834 31.824 78.3394 31.96 77.9234 31.96H71.6594ZM84.6079 44.536C84.6079 44.952 84.4719 45.304 84.1999 45.592C83.9279 45.864 83.5839 46 83.1679 46C82.7519 46 82.4079 45.864 82.1359 45.592C81.8639 45.304 81.7279 44.952 81.7279 44.536V34.624C81.7279 34.208 81.8639 33.864 82.1359 33.592C82.4079 33.304 82.7519 33.16 83.1679 33.16C83.5839 33.16 83.9279 33.304 84.1999 33.592C84.4719 33.864 84.6079 34.208 84.6079 34.624V44.536ZM83.1439 31.6C82.5999 31.6 82.2159 31.512 81.9919 31.336C81.7679 31.16 81.6559 30.848 81.6559 30.4V29.944C81.6559 29.496 81.7759 29.184 82.0159 29.008C82.2559 28.832 82.6399 28.744 83.1679 28.744C83.7279 28.744 84.1199 28.832 84.3439 29.008C84.5679 29.184 84.6799 29.496 84.6799 29.944V30.4C84.6799 30.864 84.5599 31.184 84.3199 31.36C84.0959 31.52 83.7039 31.6 83.1439 31.6Z" fill="white"/>
</svg>
