<svg width="14" height="13" viewBox="0 0 14 13" fill="none" xmlns="http://www.w3.org/2000/svg">
<path fill-rule="evenodd" clip-rule="evenodd" d="M4.62549 9.25098C7.18008 9.25098 9.25098 7.18006 9.25098 4.62546C9.25098 2.07086 7.18008 -4.86374e-05 4.62549 -4.86374e-05C2.0709 -4.86374e-05 0 2.07086 0 4.62546C0 7.18006 2.0709 9.25098 4.62549 9.25098ZM4.62548 8.32595C6.66916 8.32595 8.32588 6.66922 8.32588 4.62554C8.32588 2.58186 6.66916 0.925129 4.62548 0.925129C2.58181 0.925129 0.925092 2.58186 0.925092 4.62554C0.925092 6.66922 2.58181 8.32595 4.62548 8.32595Z" fill="#4F4F4F"/>
<line y1="-0.75" x2="6.93825" y2="-0.75" transform="matrix(0.729536 0.683943 -0.683939 0.729539 6.93848 7.70911)" stroke="#4F4F4F" stroke-width="1.5"/>
</svg>
