<svg width="538" height="127" viewBox="0 0 538 127" fill="none" xmlns="http://www.w3.org/2000/svg">
 <path d="M18.376 54.72C14.92 54.72 11.848 54.144 9.16 52.992C6.52 51.84 3.952 50.04 1.456 47.592C0.88 47.112 0.592 46.536 0.592 45.864C0.592 45.288 0.808 44.76 1.24 44.28C1.72 43.8 2.248 43.56 2.824 43.56C3.4 43.56 3.928 43.8 4.408 44.28C8.152 48.408 12.832 50.472 18.448 50.472C21.904 50.472 24.76 49.656 27.016 48.024C29.32 46.392 30.472 44.256 30.472 41.616C30.472 39.552 29.896 37.848 28.744 36.504C27.64 35.112 26.176 33.984 24.352 33.12C22.528 32.256 20.2 31.368 17.368 30.456C14.296 29.544 11.704 28.536 9.592 27.432C7.528 26.328 5.848 24.864 4.552 23.04C3.256 21.168 2.608 18.816 2.608 15.984C2.608 13.44 3.28 11.184 4.624 9.216C6.016 7.248 7.936 5.712 10.384 4.608C12.88 3.456 15.736 2.88 18.952 2.88C21.88 2.88 24.616 3.384 27.16 4.392C29.752 5.352 31.816 6.744 33.352 8.568C34.072 9.384 34.432 10.08 34.432 10.656C34.432 11.184 34.192 11.688 33.712 12.168C33.232 12.6 32.704 12.816 32.128 12.816C31.648 12.816 31.24 12.648 30.904 12.312C29.608 10.776 27.88 9.528 25.72 8.568C23.56 7.608 21.304 7.128 18.952 7.128C15.448 7.128 12.592 7.92 10.384 9.504C8.176 11.04 7.072 13.152 7.072 15.84C7.072 18.624 8.128 20.76 10.24 22.248C12.352 23.736 15.376 25.104 19.312 26.352C22.72 27.36 25.504 28.392 27.664 29.448C29.824 30.504 31.576 32.016 32.92 33.984C34.312 35.904 35.008 38.448 35.008 41.616C35.008 44.064 34.288 46.296 32.848 48.312C31.456 50.28 29.488 51.84 26.944 52.992C24.448 54.144 21.592 54.72 18.376 54.72ZM60.8937 16.92C65.2137 16.92 68.4297 18.288 70.5417 21.024C72.6537 23.712 73.7097 27.192 73.7097 31.464V51.84C73.7097 52.464 73.4937 52.992 73.0617 53.424C72.6777 53.808 72.1737 54 71.5497 54C70.9257 54 70.3977 53.808 69.9657 53.424C69.5817 52.992 69.3897 52.464 69.3897 51.84V31.464C69.3897 28.344 68.6457 25.824 67.1577 23.904C65.6697 21.936 63.3417 20.952 60.1737 20.952C58.1577 20.952 56.2377 21.432 54.4137 22.392C52.6377 23.352 51.1977 24.648 50.0937 26.28C48.9897 27.864 48.4377 29.592 48.4377 31.464V51.84C48.4377 52.464 48.2217 52.992 47.7897 53.424C47.4057 53.808 46.9017 54 46.2777 54C45.6537 54 45.1257 53.808 44.6937 53.424C44.3097 52.992 44.1177 52.464 44.1177 51.84V2.88C44.1177 2.256 44.3097 1.752 44.6937 1.368C45.1257 0.935999 45.6537 0.719999 46.2777 0.719999C46.9017 0.719999 47.4057 0.935999 47.7897 1.368C48.2217 1.752 48.4377 2.256 48.4377 2.88V23.976C49.7337 21.912 51.5337 20.232 53.8377 18.936C56.1417 17.592 58.4937 16.92 60.8937 16.92ZM114.92 17.208C115.544 17.208 116.048 17.424 116.432 17.856C116.864 18.288 117.08 18.816 117.08 19.44V51.84C117.08 52.464 116.864 52.992 116.432 53.424C116.048 53.808 115.544 54 114.92 54C114.296 54 113.768 53.808 113.336 53.424C112.952 52.992 112.76 52.464 112.76 51.84V47.016C111.56 49.176 109.76 51 107.36 52.488C104.96 53.976 102.344 54.72 99.5116 54.72C96.2956 54.72 93.3916 53.88 90.7996 52.2C88.2556 50.52 86.2396 48.216 84.7516 45.288C83.3116 42.36 82.5916 39.072 82.5916 35.424C82.5916 31.776 83.3356 28.512 84.8236 25.632C86.3116 22.704 88.3276 20.424 90.8716 18.792C93.4636 17.16 96.3196 16.344 99.4396 16.344C102.32 16.344 104.96 17.04 107.36 18.432C109.76 19.824 111.56 21.648 112.76 23.904V19.44C112.76 18.816 112.952 18.288 113.336 17.856C113.768 17.424 114.296 17.208 114.92 17.208ZM99.9436 50.688C102.44 50.688 104.672 50.04 106.64 48.744C108.656 47.4 110.216 45.576 111.32 43.272C112.472 40.92 113.048 38.304 113.048 35.424C113.048 32.64 112.472 30.096 111.32 27.792C110.216 25.488 108.656 23.688 106.64 22.392C104.672 21.048 102.44 20.376 99.9436 20.376C97.4476 20.376 95.1916 21.024 93.1756 22.32C91.2076 23.616 89.6476 25.416 88.4956 27.72C87.3916 29.976 86.8396 32.544 86.8396 35.424C86.8396 38.304 87.3916 40.92 88.4956 43.272C89.5996 45.576 91.1356 47.4 93.1036 48.744C95.1196 50.04 97.3996 50.688 99.9436 50.688ZM145.56 16.344C146.52 16.344 147.384 16.536 148.152 16.92C148.92 17.304 149.304 17.88 149.304 18.648C149.304 19.32 149.112 19.872 148.728 20.304C148.344 20.688 147.888 20.88 147.36 20.88C147.12 20.88 146.64 20.76 145.92 20.52C145.248 20.28 144.6 20.16 143.976 20.16C142.2 20.16 140.424 20.856 138.648 22.248C136.92 23.592 135.48 25.344 134.328 27.504C133.224 29.664 132.672 31.848 132.672 34.056V51.84C132.672 52.464 132.456 52.992 132.024 53.424C131.64 53.808 131.136 54 130.512 54C129.888 54 129.36 53.808 128.928 53.424C128.544 52.992 128.352 52.464 128.352 51.84V19.584C128.352 18.96 128.544 18.456 128.928 18.072C129.36 17.64 129.888 17.424 130.512 17.424C131.136 17.424 131.64 17.64 132.024 18.072C132.456 18.456 132.672 18.96 132.672 19.584V25.92C133.776 23.184 135.432 20.928 137.64 19.152C139.896 17.328 142.536 16.392 145.56 16.344ZM185.542 33.48C185.542 34.056 185.326 34.56 184.894 34.992C184.462 35.376 183.958 35.568 183.382 35.568H156.166C156.166 38.448 156.742 41.04 157.894 43.344C159.094 45.6 160.774 47.4 162.934 48.744C165.142 50.04 167.734 50.688 170.71 50.688C173.014 50.688 175.078 50.208 176.902 49.248C178.726 48.288 180.19 47.064 181.294 45.576C181.822 45.144 182.326 44.928 182.806 44.928C183.286 44.928 183.718 45.12 184.102 45.504C184.486 45.888 184.678 46.32 184.678 46.8C184.678 47.328 184.438 47.832 183.958 48.312C182.422 50.184 180.478 51.72 178.126 52.92C175.822 54.12 173.374 54.72 170.782 54.72C167.086 54.72 163.822 53.928 160.99 52.344C158.158 50.76 155.95 48.552 154.366 45.72C152.782 42.84 151.99 39.528 151.99 35.784C151.99 31.848 152.758 28.416 154.294 25.488C155.878 22.512 157.966 20.256 160.558 18.72C163.15 17.136 165.91 16.344 168.838 16.344C171.718 16.344 174.406 17.016 176.902 18.36C179.446 19.704 181.51 21.672 183.094 24.264C184.678 26.856 185.494 29.928 185.542 33.48ZM168.838 20.52C166.054 20.52 163.462 21.48 161.062 23.4C158.71 25.32 157.198 28.08 156.526 31.68H181.078V31.104C180.838 28.944 180.118 27.072 178.918 25.488C177.718 23.856 176.206 22.632 174.382 21.816C172.606 20.952 170.758 20.52 168.838 20.52ZM242.141 27.216C245.021 27.936 247.373 29.376 249.197 31.536C251.021 33.696 251.933 36.504 251.933 39.96C251.933 44.664 250.469 48.192 247.541 50.544C244.661 52.848 241.061 54 236.741 54H217.373C216.749 54 216.221 53.808 215.789 53.424C215.405 52.992 215.213 52.464 215.213 51.84V5.76C215.213 5.136 215.405 4.632 215.789 4.248C216.221 3.816 216.749 3.6 217.373 3.6H236.453C240.485 3.6 243.629 4.704 245.885 6.912C248.189 9.12 249.341 12.144 249.341 15.984C249.341 18.528 248.717 20.808 247.469 22.824C246.221 24.84 244.445 26.304 242.141 27.216ZM244.733 16.344C244.733 13.704 243.941 11.64 242.357 10.152C240.821 8.616 238.661 7.848 235.877 7.848H219.821V25.848H235.877C238.469 25.8 240.581 24.96 242.213 23.328C243.893 21.696 244.733 19.368 244.733 16.344ZM236.525 49.752C239.741 49.752 242.333 48.936 244.301 47.304C246.317 45.672 247.325 43.224 247.325 39.96C247.325 36.6 246.293 34.128 244.229 32.544C242.213 30.96 239.597 30.168 236.381 30.168H219.821V49.752H236.525ZM294.945 35.568C294.945 39.168 294.153 42.432 292.569 45.36C290.985 48.288 288.801 50.592 286.017 52.272C283.233 53.904 280.137 54.72 276.729 54.72C273.321 54.72 270.225 53.904 267.441 52.272C264.657 50.592 262.473 48.288 260.889 45.36C259.305 42.432 258.513 39.168 258.513 35.568C258.513 31.968 259.305 28.704 260.889 25.776C262.473 22.848 264.657 20.544 267.441 18.864C270.225 17.184 273.321 16.344 276.729 16.344C280.137 16.344 283.233 17.184 286.017 18.864C288.801 20.544 290.985 22.848 292.569 25.776C294.153 28.704 294.945 31.968 294.945 35.568ZM290.625 35.568C290.625 32.688 290.025 30.096 288.825 27.792C287.625 25.488 285.945 23.688 283.785 22.392C281.673 21.048 279.321 20.376 276.729 20.376C274.137 20.376 271.785 21.048 269.673 22.392C267.561 23.688 265.881 25.488 264.633 27.792C263.433 30.096 262.833 32.688 262.833 35.568C262.833 38.4 263.433 40.968 264.633 43.272C265.881 45.576 267.561 47.4 269.673 48.744C271.785 50.04 274.137 50.688 276.729 50.688C279.321 50.688 281.673 50.04 283.785 48.744C285.945 47.448 287.625 45.648 288.825 43.344C290.025 41.04 290.625 38.448 290.625 35.568ZM337.766 35.568C337.766 39.168 336.974 42.432 335.39 45.36C333.806 48.288 331.622 50.592 328.838 52.272C326.054 53.904 322.958 54.72 319.55 54.72C316.142 54.72 313.046 53.904 310.262 52.272C307.478 50.592 305.294 48.288 303.71 45.36C302.126 42.432 301.334 39.168 301.334 35.568C301.334 31.968 302.126 28.704 303.71 25.776C305.294 22.848 307.478 20.544 310.262 18.864C313.046 17.184 316.142 16.344 319.55 16.344C322.958 16.344 326.054 17.184 328.838 18.864C331.622 20.544 333.806 22.848 335.39 25.776C336.974 28.704 337.766 31.968 337.766 35.568ZM333.446 35.568C333.446 32.688 332.846 30.096 331.646 27.792C330.446 25.488 328.766 23.688 326.606 22.392C324.494 21.048 322.142 20.376 319.55 20.376C316.958 20.376 314.606 21.048 312.494 22.392C310.382 23.688 308.702 25.488 307.454 27.792C306.254 30.096 305.654 32.688 305.654 35.568C305.654 38.4 306.254 40.968 307.454 43.272C308.702 45.576 310.382 47.4 312.494 48.744C314.606 50.04 316.958 50.688 319.55 50.688C322.142 50.688 324.494 50.04 326.606 48.744C328.766 47.448 330.446 45.648 331.646 43.344C332.846 41.04 333.446 38.448 333.446 35.568ZM375.762 50.184C376.194 50.664 376.41 51.216 376.41 51.84C376.41 52.464 376.146 52.992 375.618 53.424C375.138 53.808 374.682 54 374.25 54C373.626 54 373.098 53.736 372.666 53.208L356.754 36.36L351.354 40.968V51.84C351.354 52.464 351.138 52.992 350.706 53.424C350.322 53.808 349.818 54 349.194 54C348.57 54 348.042 53.808 347.61 53.424C347.226 52.992 347.034 52.464 347.034 51.84V2.88C347.034 2.256 347.226 1.752 347.61 1.368C348.042 0.935999 348.57 0.719999 349.194 0.719999C349.818 0.719999 350.322 0.935999 350.706 1.368C351.138 1.752 351.354 2.256 351.354 2.88V35.712L372.162 17.784C372.594 17.304 373.098 17.064 373.674 17.064C374.202 17.064 374.682 17.304 375.114 17.784C375.546 18.216 375.762 18.696 375.762 19.224C375.762 19.8 375.498 20.352 374.97 20.88L360.138 33.48L375.762 50.184ZM382.694 48.168C382.31 47.544 382.118 47.016 382.118 46.584C382.118 45.96 382.43 45.48 383.054 45.144C383.342 44.856 383.726 44.712 384.206 44.712C384.782 44.712 385.31 44.952 385.79 45.432C388.622 49.176 392.39 51.048 397.094 51.048C399.398 51.048 401.39 50.52 403.07 49.464C404.798 48.36 405.662 46.776 405.662 44.712C405.662 42.696 404.87 41.184 403.286 40.176C401.702 39.168 399.494 38.304 396.662 37.584C392.678 36.576 389.558 35.28 387.302 33.696C385.046 32.064 383.918 29.688 383.918 26.568C383.918 24.6 384.47 22.848 385.574 21.312C386.678 19.728 388.166 18.504 390.038 17.64C391.958 16.776 394.118 16.344 396.518 16.344C398.582 16.344 400.646 16.752 402.71 17.568C404.822 18.336 406.622 19.584 408.11 21.312C408.542 21.648 408.758 22.128 408.758 22.752C408.758 23.328 408.518 23.832 408.038 24.264C407.702 24.552 407.27 24.696 406.742 24.696C406.262 24.696 405.83 24.504 405.446 24.12C404.294 22.824 402.926 21.84 401.342 21.168C399.758 20.496 398.054 20.16 396.23 20.16C393.974 20.16 392.03 20.688 390.398 21.744C388.814 22.8 388.022 24.384 388.022 26.496C388.118 28.416 388.982 29.88 390.614 30.888C392.294 31.896 394.742 32.808 397.958 33.624C400.454 34.248 402.518 34.944 404.15 35.712C405.782 36.48 407.102 37.56 408.11 38.952C409.166 40.344 409.694 42.192 409.694 44.496C409.694 47.616 408.446 50.112 405.95 51.984C403.454 53.808 400.358 54.72 396.662 54.72C390.806 54.72 386.15 52.536 382.694 48.168ZM63.088 75.456C63.76 75.456 64.312 75.648 64.744 76.032C65.176 76.416 65.392 76.944 65.392 77.616L65.248 78.552L49.336 124.632C49.192 125.064 48.928 125.4 48.544 125.64C48.208 125.88 47.824 126 47.392 126C46.288 126 45.568 125.544 45.232 124.632L32.776 93.888L20.32 124.632C19.888 125.544 19.168 126 18.16 126C17.728 126 17.32 125.88 16.936 125.64C16.6 125.4 16.384 125.064 16.288 124.632L0.376 78.552C0.232 78.264 0.16 77.976 0.16 77.688C0.16 77.016 0.4 76.488 0.88 76.104C1.408 75.672 1.96 75.456 2.536 75.456C3.016 75.456 3.448 75.576 3.832 75.816C4.216 76.056 4.48 76.392 4.624 76.824L18.736 118.008L30.832 87.84C31.264 86.88 31.936 86.424 32.848 86.472C33.328 86.424 33.736 86.544 34.072 86.832C34.456 87.072 34.744 87.408 34.936 87.84L46.96 118.008L60.928 76.824C61.312 75.912 62.032 75.456 63.088 75.456ZM77.4031 123.84C77.4031 124.464 77.1871 124.992 76.7551 125.424C76.3711 125.808 75.8671 126 75.2431 126C74.6191 126 74.0911 125.808 73.6591 125.424C73.2751 124.992 73.0831 124.464 73.0831 123.84V90.72C73.0831 90.096 73.2751 89.592 73.6591 89.208C74.0911 88.776 74.6191 88.56 75.2431 88.56C75.8671 88.56 76.3711 88.776 76.7551 89.208C77.1871 89.592 77.4031 90.096 77.4031 90.72V123.84ZM75.2431 83.736C74.2831 83.736 73.5391 83.52 73.0111 83.088C72.4831 82.608 72.2191 81.936 72.2191 81.072V80.352C72.2191 79.488 72.4831 78.84 73.0111 78.408C73.5871 77.928 74.3551 77.688 75.3151 77.688C77.2351 77.688 78.1951 78.576 78.1951 80.352V81.072C78.1951 81.936 77.9311 82.608 77.4031 83.088C76.9231 83.52 76.2031 83.736 75.2431 83.736ZM95.8255 93.384V117.504C95.8255 119.328 96.1615 120.576 96.8335 121.248C97.5055 121.872 98.3935 122.184 99.4975 122.184C99.7855 122.184 100.146 122.136 100.578 122.04C101.01 121.896 101.346 121.824 101.586 121.824C102.018 121.824 102.378 122.016 102.666 122.4C103.002 122.736 103.17 123.144 103.17 123.624C103.17 124.296 102.786 124.872 102.018 125.352C101.25 125.784 100.338 126 99.2815 126C97.9855 126 96.8335 125.88 95.8255 125.64C94.8175 125.4 93.8335 124.68 92.8735 123.48C91.9615 122.28 91.5055 120.36 91.5055 117.72V93.384H86.2495C85.6735 93.384 85.1695 93.192 84.7375 92.808C84.3535 92.424 84.1615 91.944 84.1615 91.368C84.1615 90.792 84.3535 90.312 84.7375 89.928C85.1695 89.544 85.6735 89.352 86.2495 89.352H91.5055V81.36C91.5055 80.736 91.6975 80.232 92.0815 79.848C92.5135 79.416 93.0415 79.2 93.6655 79.2C94.2895 79.2 94.7935 79.416 95.1775 79.848C95.6095 80.232 95.8255 80.736 95.8255 81.36V89.352H103.026C103.554 89.352 104.01 89.568 104.394 90C104.826 90.432 105.042 90.912 105.042 91.44C105.042 92.016 104.85 92.496 104.466 92.88C104.082 93.216 103.602 93.384 103.026 93.384H95.8255ZM129.8 88.92C134.12 88.92 137.336 90.288 139.448 93.024C141.56 95.712 142.616 99.192 142.616 103.464V123.84C142.616 124.464 142.4 124.992 141.968 125.424C141.584 125.808 141.08 126 140.456 126C139.832 126 139.304 125.808 138.872 125.424C138.488 124.992 138.296 124.464 138.296 123.84V103.464C138.296 100.344 137.552 97.824 136.064 95.904C134.576 93.936 132.248 92.952 129.08 92.952C127.064 92.952 125.144 93.432 123.32 94.392C121.544 95.352 120.104 96.648 119 98.28C117.896 99.864 117.344 101.592 117.344 103.464V123.84C117.344 124.464 117.128 124.992 116.696 125.424C116.312 125.808 115.808 126 115.184 126C114.56 126 114.032 125.808 113.6 125.424C113.216 124.992 113.024 124.464 113.024 123.84V74.88C113.024 74.256 113.216 73.752 113.6 73.368C114.032 72.936 114.56 72.72 115.184 72.72C115.808 72.72 116.312 72.936 116.696 73.368C117.128 73.752 117.344 74.256 117.344 74.88V95.976C118.64 93.912 120.44 92.232 122.744 90.936C125.048 89.592 127.4 88.92 129.8 88.92ZM201.641 99.216C204.521 99.936 206.873 101.376 208.697 103.536C210.521 105.696 211.433 108.504 211.433 111.96C211.433 116.664 209.969 120.192 207.041 122.544C204.161 124.848 200.561 126 196.241 126H176.873C176.249 126 175.721 125.808 175.289 125.424C174.905 124.992 174.713 124.464 174.713 123.84V77.76C174.713 77.136 174.905 76.632 175.289 76.248C175.721 75.816 176.249 75.6 176.873 75.6H195.953C199.985 75.6 203.129 76.704 205.385 78.912C207.689 81.12 208.841 84.144 208.841 87.984C208.841 90.528 208.217 92.808 206.969 94.824C205.721 96.84 203.945 98.304 201.641 99.216ZM204.233 88.344C204.233 85.704 203.441 83.64 201.857 82.152C200.321 80.616 198.161 79.848 195.377 79.848H179.321V97.848H195.377C197.969 97.8 200.081 96.96 201.713 95.328C203.393 93.696 204.233 91.368 204.233 88.344ZM196.025 121.752C199.241 121.752 201.833 120.936 203.801 119.304C205.817 117.672 206.825 115.224 206.825 111.96C206.825 108.6 205.793 106.128 203.729 104.544C201.713 102.96 199.097 102.168 195.881 102.168H179.321V121.752H196.025ZM254.445 107.568C254.445 111.168 253.653 114.432 252.069 117.36C250.485 120.288 248.301 122.592 245.517 124.272C242.733 125.904 239.637 126.72 236.229 126.72C232.821 126.72 229.725 125.904 226.941 124.272C224.157 122.592 221.973 120.288 220.389 117.36C218.805 114.432 218.013 111.168 218.013 107.568C218.013 103.968 218.805 100.704 220.389 97.776C221.973 94.848 224.157 92.544 226.941 90.864C229.725 89.184 232.821 88.344 236.229 88.344C239.637 88.344 242.733 89.184 245.517 90.864C248.301 92.544 250.485 94.848 252.069 97.776C253.653 100.704 254.445 103.968 254.445 107.568ZM250.125 107.568C250.125 104.688 249.525 102.096 248.325 99.792C247.125 97.488 245.445 95.688 243.285 94.392C241.173 93.048 238.821 92.376 236.229 92.376C233.637 92.376 231.285 93.048 229.173 94.392C227.061 95.688 225.381 97.488 224.133 99.792C222.933 102.096 222.333 104.688 222.333 107.568C222.333 110.4 222.933 112.968 224.133 115.272C225.381 117.576 227.061 119.4 229.173 120.744C231.285 122.04 233.637 122.688 236.229 122.688C238.821 122.688 241.173 122.04 243.285 120.744C245.445 119.448 247.125 117.648 248.325 115.344C249.525 113.04 250.125 110.448 250.125 107.568ZM297.266 107.568C297.266 111.168 296.474 114.432 294.89 117.36C293.306 120.288 291.122 122.592 288.338 124.272C285.554 125.904 282.458 126.72 279.05 126.72C275.642 126.72 272.546 125.904 269.762 124.272C266.978 122.592 264.794 120.288 263.21 117.36C261.626 114.432 260.834 111.168 260.834 107.568C260.834 103.968 261.626 100.704 263.21 97.776C264.794 94.848 266.978 92.544 269.762 90.864C272.546 89.184 275.642 88.344 279.05 88.344C282.458 88.344 285.554 89.184 288.338 90.864C291.122 92.544 293.306 94.848 294.89 97.776C296.474 100.704 297.266 103.968 297.266 107.568ZM292.946 107.568C292.946 104.688 292.346 102.096 291.146 99.792C289.946 97.488 288.266 95.688 286.106 94.392C283.994 93.048 281.642 92.376 279.05 92.376C276.458 92.376 274.106 93.048 271.994 94.392C269.882 95.688 268.202 97.488 266.954 99.792C265.754 102.096 265.154 104.688 265.154 107.568C265.154 110.4 265.754 112.968 266.954 115.272C268.202 117.576 269.882 119.4 271.994 120.744C274.106 122.04 276.458 122.688 279.05 122.688C281.642 122.688 283.994 122.04 286.106 120.744C288.266 119.448 289.946 117.648 291.146 115.344C292.346 113.04 292.946 110.448 292.946 107.568ZM335.262 122.184C335.694 122.664 335.91 123.216 335.91 123.84C335.91 124.464 335.646 124.992 335.118 125.424C334.638 125.808 334.182 126 333.75 126C333.126 126 332.598 125.736 332.166 125.208L316.254 108.36L310.854 112.968V123.84C310.854 124.464 310.638 124.992 310.206 125.424C309.822 125.808 309.318 126 308.694 126C308.07 126 307.542 125.808 307.11 125.424C306.726 124.992 306.534 124.464 306.534 123.84V74.88C306.534 74.256 306.726 73.752 307.11 73.368C307.542 72.936 308.07 72.72 308.694 72.72C309.318 72.72 309.822 72.936 310.206 73.368C310.638 73.752 310.854 74.256 310.854 74.88V107.712L331.662 89.784C332.094 89.304 332.598 89.064 333.174 89.064C333.702 89.064 334.182 89.304 334.614 89.784C335.046 90.216 335.262 90.696 335.262 91.224C335.262 91.8 334.998 92.352 334.47 92.88L319.638 105.48L335.262 122.184ZM364.937 75.6C367.577 75.6 369.953 76.224 372.065 77.472C374.177 78.672 375.809 80.376 376.961 82.584C378.161 84.744 378.761 87.192 378.761 89.928C378.761 92.664 378.161 95.16 376.961 97.416C375.809 99.672 374.177 101.448 372.065 102.744C369.953 104.04 367.577 104.688 364.937 104.688H350.033V123.84C350.033 124.464 349.817 124.992 349.385 125.424C349.001 125.808 348.497 126 347.873 126C347.249 126 346.721 125.808 346.289 125.424C345.905 124.992 345.713 124.464 345.713 123.84V77.76C345.713 77.136 345.905 76.632 346.289 76.248C346.721 75.816 347.249 75.6 347.873 75.6H364.937ZM364.937 100.512C367.721 100.512 369.977 99.504 371.705 97.488C373.433 95.472 374.297 92.952 374.297 89.928C374.297 86.952 373.433 84.528 371.705 82.656C369.977 80.784 367.721 79.848 364.937 79.848H350.033V100.512H364.937ZM391.7 123.84C391.7 124.464 391.484 124.992 391.052 125.424C390.668 125.808 390.164 126 389.54 126C388.916 126 388.388 125.808 387.956 125.424C387.572 124.992 387.38 124.464 387.38 123.84V90.72C387.38 90.096 387.572 89.592 387.956 89.208C388.388 88.776 388.916 88.56 389.54 88.56C390.164 88.56 390.668 88.776 391.052 89.208C391.484 89.592 391.7 90.096 391.7 90.72V123.84ZM389.54 83.736C388.58 83.736 387.836 83.52 387.308 83.088C386.78 82.608 386.516 81.936 386.516 81.072V80.352C386.516 79.488 386.78 78.84 387.308 78.408C387.884 77.928 388.652 77.688 389.612 77.688C391.532 77.688 392.492 78.576 392.492 80.352V81.072C392.492 81.936 392.228 82.608 391.7 83.088C391.22 83.52 390.5 83.736 389.54 83.736ZM418.834 88.344C421.09 88.344 423.178 88.608 425.098 89.136C427.066 89.616 428.626 90.288 429.778 91.152C430.978 92.016 431.578 92.952 431.578 93.96C431.578 94.488 431.386 94.968 431.002 95.4C430.666 95.832 430.234 96.048 429.706 96.048C429.226 96.048 428.818 95.952 428.482 95.76C428.194 95.568 427.858 95.28 427.474 94.896C426.85 94.272 426.25 93.816 425.674 93.528C424.954 93.192 423.994 92.928 422.794 92.736C421.642 92.496 420.394 92.376 419.05 92.376C416.41 92.376 413.986 93.048 411.778 94.392C409.618 95.736 407.914 97.56 406.666 99.864C405.418 102.168 404.794 104.712 404.794 107.496C404.794 110.376 405.394 112.968 406.594 115.272C407.794 117.576 409.45 119.4 411.562 120.744C413.722 122.04 416.17 122.688 418.906 122.688C420.634 122.688 422.002 122.544 423.01 122.256C424.066 121.968 425.098 121.56 426.106 121.032C426.442 120.84 427.018 120.408 427.834 119.736C428.218 119.4 428.554 119.16 428.842 119.016C429.13 118.824 429.442 118.728 429.778 118.728C430.354 118.728 430.81 118.92 431.146 119.304C431.482 119.64 431.65 120.096 431.65 120.672C431.65 121.488 431.074 122.376 429.922 123.336C428.77 124.248 427.186 125.04 425.17 125.712C423.154 126.384 420.922 126.72 418.474 126.72C414.97 126.72 411.85 125.904 409.114 124.272C406.378 122.592 404.242 120.288 402.706 117.36C401.218 114.432 400.474 111.144 400.474 107.496C400.474 103.992 401.242 100.8 402.778 97.92C404.314 94.992 406.474 92.664 409.258 90.936C412.042 89.208 415.234 88.344 418.834 88.344ZM469.067 122.184C469.499 122.664 469.715 123.216 469.715 123.84C469.715 124.464 469.451 124.992 468.923 125.424C468.443 125.808 467.987 126 467.555 126C466.931 126 466.403 125.736 465.971 125.208L450.059 108.36L444.659 112.968V123.84C444.659 124.464 444.443 124.992 444.011 125.424C443.627 125.808 443.123 126 442.499 126C441.875 126 441.347 125.808 440.915 125.424C440.531 124.992 440.339 124.464 440.339 123.84V74.88C440.339 74.256 440.531 73.752 440.915 73.368C441.347 72.936 441.875 72.72 442.499 72.72C443.123 72.72 443.627 72.936 444.011 73.368C444.443 73.752 444.659 74.256 444.659 74.88V107.712L465.467 89.784C465.899 89.304 466.403 89.064 466.979 89.064C467.507 89.064 467.987 89.304 468.419 89.784C468.851 90.216 469.067 90.696 469.067 91.224C469.067 91.8 468.803 92.352 468.275 92.88L453.443 105.48L469.067 122.184ZM507.925 105.48C507.925 106.056 507.709 106.56 507.277 106.992C506.845 107.376 506.341 107.568 505.765 107.568H478.549C478.549 110.448 479.125 113.04 480.277 115.344C481.477 117.6 483.157 119.4 485.317 120.744C487.525 122.04 490.117 122.688 493.093 122.688C495.397 122.688 497.461 122.208 499.285 121.248C501.109 120.288 502.573 119.064 503.677 117.576C504.205 117.144 504.709 116.928 505.189 116.928C505.669 116.928 506.101 117.12 506.485 117.504C506.869 117.888 507.061 118.32 507.061 118.8C507.061 119.328 506.821 119.832 506.341 120.312C504.805 122.184 502.861 123.72 500.509 124.92C498.205 126.12 495.757 126.72 493.165 126.72C489.469 126.72 486.205 125.928 483.373 124.344C480.541 122.76 478.333 120.552 476.749 117.72C475.165 114.84 474.373 111.528 474.373 107.784C474.373 103.848 475.141 100.416 476.677 97.488C478.261 94.512 480.349 92.256 482.941 90.72C485.533 89.136 488.293 88.344 491.221 88.344C494.101 88.344 496.789 89.016 499.285 90.36C501.829 91.704 503.893 93.672 505.477 96.264C507.061 98.856 507.877 101.928 507.925 105.48ZM491.221 92.52C488.437 92.52 485.845 93.48 483.445 95.4C481.093 97.32 479.581 100.08 478.909 103.68H503.461V103.104C503.221 100.944 502.501 99.072 501.301 97.488C500.101 95.856 498.589 94.632 496.765 93.816C494.989 92.952 493.141 92.52 491.221 92.52ZM534.037 88.344C534.997 88.344 535.861 88.536 536.629 88.92C537.397 89.304 537.781 89.88 537.781 90.648C537.781 91.32 537.589 91.872 537.205 92.304C536.821 92.688 536.365 92.88 535.837 92.88C535.597 92.88 535.117 92.76 534.397 92.52C533.725 92.28 533.077 92.16 532.453 92.16C530.677 92.16 528.901 92.856 527.125 94.248C525.397 95.592 523.957 97.344 522.805 99.504C521.701 101.664 521.149 103.848 521.149 106.056V123.84C521.149 124.464 520.933 124.992 520.501 125.424C520.117 125.808 519.613 126 518.989 126C518.365 126 517.837 125.808 517.405 125.424C517.021 124.992 516.829 124.464 516.829 123.84V91.584C516.829 90.96 517.021 90.456 517.405 90.072C517.837 89.64 518.365 89.424 518.989 89.424C519.613 89.424 520.117 89.64 520.501 90.072C520.933 90.456 521.149 90.96 521.149 91.584V97.92C522.253 95.184 523.909 92.928 526.117 91.152C528.373 89.328 531.013 88.392 534.037 88.344Z" fill="black"/>
</svg>